{
	"patcher" : 	{
		"fileversion" : 1,
		"appversion" : 		{
			"major" : 8,
			"minor" : 6,
			"revision" : 1,
			"architecture" : "x64",
			"modernui" : 1
		}
,
		"classnamespace" : "box",
		"rect" : [ 34.0, 62.0, 1082.0, 804.0 ],
		"bglocked" : 1,
		"openinpresentation" : 1,
		"default_fontsize" : 12.0,
		"default_fontface" : 0,
		"default_fontname" : "Arial",
		"gridonopen" : 1,
		"gridsize" : [ 15.0, 15.0 ],
		"gridsnaponopen" : 1,
		"objectsnaponopen" : 1,
		"statusbarvisible" : 2,
		"toolbarvisible" : 1,
		"lefttoolbarpinned" : 0,
		"toptoolbarpinned" : 0,
		"righttoolbarpinned" : 0,
		"bottomtoolbarpinned" : 0,
		"toolbars_unpinned_last_save" : 0,
		"tallnewobj" : 0,
		"boxanimatetime" : 200,
		"enablehscroll" : 1,
		"enablevscroll" : 1,
		"devicewidth" : 0.0,
		"description" : "",
		"digest" : "",
		"tags" : "",
		"style" : "",
		"subpatcher_template" : "",
		"assistshowspatchername" : 0,
		"boxes" : [ 			{
				"box" : 				{
					"id" : "obj-94",
					"maxclass" : "comment",
					"numinlets" : 1,
					"numoutlets" : 0,
					"patching_rect" : [ 228.0, 681.0, 150.0, 20.0 ],
					"presentation" : 1,
					"presentation_rect" : [ 184.0, 621.0, 33.0, 20.0 ],
					"text" : "B"
				}

			}
, 			{
				"box" : 				{
					"id" : "obj-93",
					"maxclass" : "comment",
					"numinlets" : 1,
					"numoutlets" : 0,
					"patching_rect" : [ 213.0, 666.0, 150.0, 20.0 ],
					"presentation" : 1,
					"presentation_rect" : [ 133.0, 621.0, 33.0, 20.0 ],
					"text" : "G"
				}

			}
, 			{
				"box" : 				{
					"id" : "obj-91",
					"maxclass" : "comment",
					"numinlets" : 1,
					"numoutlets" : 0,
					"patching_rect" : [ 198.0, 651.0, 150.0, 20.0 ],
					"presentation" : 1,
					"presentation_rect" : [ 81.0, 621.0, 33.0, 20.0 ],
					"text" : "R"
				}

			}
, 			{
				"box" : 				{
					"id" : "obj-88",
					"maxclass" : "comment",
					"numinlets" : 1,
					"numoutlets" : 0,
					"patching_rect" : [ 303.5, 0.0, 150.0, 20.0 ],
					"presentation" : 1,
					"presentation_rect" : [ 81.0, 575.0, 150.0, 20.0 ],
					"text" : "background color"
				}

			}
, 			{
				"box" : 				{
					"id" : "obj-82",
					"maxclass" : "newobj",
					"numinlets" : 1,
					"numoutlets" : 1,
					"outlettype" : [ "" ],
					"patching_rect" : [ 642.0, 23.0, 80.0, 22.0 ],
					"text" : "loadmess 0.2"
				}

			}
, 			{
				"box" : 				{
					"id" : "obj-80",
					"maxclass" : "newobj",
					"numinlets" : 1,
					"numoutlets" : 1,
					"outlettype" : [ "" ],
					"patching_rect" : [ 553.0, 23.0, 80.0, 22.0 ],
					"text" : "loadmess 0.5"
				}

			}
, 			{
				"box" : 				{
					"id" : "obj-78",
					"maxclass" : "newobj",
					"numinlets" : 1,
					"numoutlets" : 1,
					"outlettype" : [ "" ],
					"patching_rect" : [ 462.5, 23.0, 80.0, 22.0 ],
					"text" : "loadmess 0.3"
				}

			}
, 			{
				"box" : 				{
					"format" : 6,
					"id" : "obj-77",
					"maxclass" : "flonum",
					"maximum" : 1.0,
					"minimum" : 0.0,
					"numinlets" : 1,
					"numoutlets" : 2,
					"outlettype" : [ "", "bang" ],
					"parameter_enable" : 0,
					"patching_rect" : [ 409.5, 23.0, 50.0, 22.0 ],
					"presentation" : 1,
					"presentation_rect" : [ 184.0, 597.0, 50.0, 22.0 ]
				}

			}
, 			{
				"box" : 				{
					"format" : 6,
					"id" : "obj-60",
					"maxclass" : "flonum",
					"maximum" : 1.0,
					"minimum" : 0.0,
					"numinlets" : 1,
					"numoutlets" : 2,
					"outlettype" : [ "", "bang" ],
					"parameter_enable" : 0,
					"patching_rect" : [ 356.5, 23.0, 50.0, 22.0 ],
					"presentation" : 1,
					"presentation_rect" : [ 133.0, 597.0, 50.0, 22.0 ]
				}

			}
, 			{
				"box" : 				{
					"format" : 6,
					"id" : "obj-45",
					"maxclass" : "flonum",
					"maximum" : 1.0,
					"minimum" : 0.0,
					"numinlets" : 1,
					"numoutlets" : 2,
					"outlettype" : [ "", "bang" ],
					"parameter_enable" : 0,
					"patching_rect" : [ 303.5, 23.0, 50.0, 22.0 ],
					"presentation" : 1,
					"presentation_rect" : [ 81.0, 597.0, 50.0, 22.0 ]
				}

			}
, 			{
				"box" : 				{
					"id" : "obj-24",
					"maxclass" : "newobj",
					"numinlets" : 3,
					"numoutlets" : 1,
					"outlettype" : [ "" ],
					"patching_rect" : [ 304.5, 60.0, 48.0, 22.0 ],
					"text" : "pak f f f"
				}

			}
, 			{
				"box" : 				{
					"id" : "obj-19",
					"maxclass" : "message",
					"numinlets" : 2,
					"numoutlets" : 1,
					"outlettype" : [ "" ],
					"patching_rect" : [ 304.5, 88.0, 121.0, 22.0 ],
					"text" : "erase_color $1 $2 $3"
				}

			}
, 			{
				"box" : 				{
					"id" : "obj-39",
					"maxclass" : "newobj",
					"numinlets" : 1,
					"numoutlets" : 1,
					"outlettype" : [ "" ],
					"patching_rect" : [ 296.0, 477.0, 70.0, 22.0 ],
					"text" : "loadmess 7"
				}

			}
, 			{
				"box" : 				{
					"id" : "obj-295",
					"maxclass" : "newobj",
					"numinlets" : 1,
					"numoutlets" : 2,
					"outlettype" : [ "bang", "int" ],
					"patching_rect" : [ 754.5, 481.0, 29.5, 22.0 ],
					"text" : "t b i"
				}

			}
, 			{
				"box" : 				{
					"id" : "obj-294",
					"maxclass" : "newobj",
					"numinlets" : 1,
					"numoutlets" : 2,
					"outlettype" : [ "bang", "float" ],
					"patching_rect" : [ 823.0, 563.0, 29.5, 22.0 ],
					"text" : "t b f"
				}

			}
, 			{
				"box" : 				{
					"id" : "obj-293",
					"maxclass" : "newobj",
					"numinlets" : 2,
					"numoutlets" : 1,
					"outlettype" : [ "int" ],
					"patching_rect" : [ 690.5, 450.0, 29.5, 22.0 ],
					"text" : "i"
				}

			}
, 			{
				"box" : 				{
					"id" : "obj-292",
					"maxclass" : "newobj",
					"numinlets" : 1,
					"numoutlets" : 1,
					"outlettype" : [ "" ],
					"patching_rect" : [ 493.5, 231.0, 70.0, 22.0 ],
					"text" : "loadmess 1"
				}

			}
, 			{
				"box" : 				{
					"id" : "obj-289",
					"maxclass" : "newobj",
					"numinlets" : 2,
					"numoutlets" : 1,
					"outlettype" : [ "int" ],
					"patching_rect" : [ 754.5, 402.0, 29.5, 22.0 ],
					"text" : "i"
				}

			}
, 			{
				"box" : 				{
					"id" : "obj-288",
					"maxclass" : "newobj",
					"numinlets" : 1,
					"numoutlets" : 2,
					"outlettype" : [ "bang", "int" ],
					"patching_rect" : [ 886.0, 383.0, 29.5, 22.0 ],
					"text" : "t b i"
				}

			}
, 			{
				"box" : 				{
					"id" : "obj-282",
					"maxclass" : "newobj",
					"numinlets" : 2,
					"numoutlets" : 1,
					"outlettype" : [ "" ],
					"patching_rect" : [ 754.5, 442.0, 161.0, 22.0 ],
					"text" : "if $i1 >= $i2 then $i1 else $i2"
				}

			}
, 			{
				"box" : 				{
					"id" : "obj-281",
					"maxclass" : "newobj",
					"numinlets" : 2,
					"numoutlets" : 1,
					"outlettype" : [ "float" ],
					"patching_rect" : [ 690.5, 545.0, 29.5, 22.0 ],
					"text" : "/ 1."
				}

			}
, 			{
				"box" : 				{
					"id" : "obj-280",
					"maxclass" : "newobj",
					"numinlets" : 1,
					"numoutlets" : 1,
					"outlettype" : [ "" ],
					"patching_rect" : [ 823.0, 490.0, 70.0, 22.0 ],
					"text" : "loadmess 1"
				}

			}
, 			{
				"box" : 				{
					"format" : 6,
					"id" : "obj-279",
					"maxclass" : "flonum",
					"maximum" : 1.0,
					"minimum" : 0.1,
					"numinlets" : 1,
					"numoutlets" : 2,
					"outlettype" : [ "", "bang" ],
					"parameter_enable" : 0,
					"patching_rect" : [ 823.0, 523.0, 50.0, 22.0 ],
					"presentation" : 1,
					"presentation_rect" : [ 829.083333333333258, 237.0, 50.0, 22.0 ]
				}

			}
, 			{
				"box" : 				{
					"id" : "obj-275",
					"maxclass" : "newobj",
					"numinlets" : 2,
					"numoutlets" : 1,
					"outlettype" : [ "float" ],
					"patching_rect" : [ 690.5, 609.0, 29.5, 22.0 ],
					"text" : "* 1."
				}

			}
, 			{
				"box" : 				{
					"id" : "obj-274",
					"maxclass" : "comment",
					"numinlets" : 1,
					"numoutlets" : 0,
					"patching_rect" : [ 806.0, 935.0, 150.0, 20.0 ],
					"presentation" : 1,
					"presentation_rect" : [ 347.5, 516.0, 115.0, 20.0 ],
					"text" : "read-only >",
					"textjustification" : 2
				}

			}
, 			{
				"box" : 				{
					"id" : "obj-272",
					"maxclass" : "comment",
					"numinlets" : 1,
					"numoutlets" : 0,
					"patching_rect" : [ 282.0, 268.0, 150.0, 20.0 ],
					"presentation" : 1,
					"presentation_rect" : [ 660.5, 420.0, 150.0, 20.0 ],
					"text" : "subdivisions"
				}

			}
, 			{
				"box" : 				{
					"id" : "obj-271",
					"maxclass" : "comment",
					"numinlets" : 1,
					"numoutlets" : 0,
					"patching_rect" : [ 456.0, 268.0, 150.0, 20.0 ],
					"presentation" : 1,
					"presentation_rect" : [ 886.5, 518.0, 150.0, 20.0 ],
					"text" : "subdivisions"
				}

			}
, 			{
				"box" : 				{
					"id" : "obj-269",
					"maxclass" : "comment",
					"numinlets" : 1,
					"numoutlets" : 0,
					"patching_rect" : [ 453.5, 202.0, 150.0, 20.0 ],
					"presentation" : 1,
					"presentation_rect" : [ 516.5, 492.0, 92.0, 20.0 ],
					"text" : "change tempo"
				}

			}
, 			{
				"box" : 				{
					"id" : "obj-267",
					"maxclass" : "newobj",
					"numinlets" : 1,
					"numoutlets" : 1,
					"outlettype" : [ "" ],
					"patching_rect" : [ 401.5, 170.0, 83.0, 22.0 ],
					"text" : "loadmess 120"
				}

			}
, 			{
				"box" : 				{
					"id" : "obj-265",
					"maxclass" : "number",
					"maximum" : 200,
					"minimum" : 20,
					"numinlets" : 1,
					"numoutlets" : 2,
					"outlettype" : [ "", "bang" ],
					"parameter_enable" : 0,
					"patching_rect" : [ 401.5, 201.0, 50.0, 22.0 ],
					"presentation" : 1,
					"presentation_rect" : [ 464.5, 491.0, 50.0, 22.0 ]
				}

			}
, 			{
				"box" : 				{
					"id" : "obj-266",
					"maxclass" : "message",
					"numinlets" : 2,
					"numoutlets" : 1,
					"outlettype" : [ "" ],
					"patching_rect" : [ 401.5, 225.0, 59.0, 22.0 ],
					"text" : "tempo $1"
				}

			}
, 			{
				"box" : 				{
					"id" : "obj-263",
					"maxclass" : "number",
					"maximum" : 4,
					"minimum" : 1,
					"numinlets" : 1,
					"numoutlets" : 2,
					"outlettype" : [ "", "bang" ],
					"parameter_enable" : 0,
					"patching_rect" : [ 404.0, 267.0, 50.0, 22.0 ],
					"presentation" : 1,
					"presentation_rect" : [ 834.5, 517.0, 50.0, 22.0 ]
				}

			}
, 			{
				"box" : 				{
					"id" : "obj-264",
					"maxclass" : "message",
					"numinlets" : 2,
					"numoutlets" : 1,
					"outlettype" : [ "" ],
					"patching_rect" : [ 404.0, 291.0, 91.0, 22.0 ],
					"text" : "subdivisions $1"
				}

			}
, 			{
				"box" : 				{
					"id" : "obj-260",
					"maxclass" : "number",
					"maximum" : 4,
					"minimum" : 1,
					"numinlets" : 1,
					"numoutlets" : 2,
					"outlettype" : [ "", "bang" ],
					"parameter_enable" : 0,
					"patching_rect" : [ 230.0, 267.0, 50.0, 22.0 ],
					"presentation" : 1,
					"presentation_rect" : [ 610.5, 419.0, 50.0, 22.0 ]
				}

			}
, 			{
				"box" : 				{
					"id" : "obj-258",
					"maxclass" : "message",
					"numinlets" : 2,
					"numoutlets" : 1,
					"outlettype" : [ "" ],
					"patching_rect" : [ 230.0, 291.0, 91.0, 22.0 ],
					"text" : "subdivisions $1"
				}

			}
, 			{
				"box" : 				{
					"id" : "obj-253",
					"maxclass" : "newobj",
					"numinlets" : 2,
					"numoutlets" : 1,
					"outlettype" : [ "float" ],
					"patching_rect" : [ 690.5, 514.0, 47.0, 22.0 ],
					"text" : "* 1000."
				}

			}
, 			{
				"box" : 				{
					"id" : "obj-252",
					"maxclass" : "newobj",
					"numinlets" : 2,
					"numoutlets" : 1,
					"outlettype" : [ "float" ],
					"patching_rect" : [ 690.5, 490.0, 35.0, 22.0 ],
					"text" : "!/ 60."
				}

			}
, 			{
				"box" : 				{
					"id" : "obj-243",
					"maxclass" : "newobj",
					"numinlets" : 1,
					"numoutlets" : 1,
					"outlettype" : [ "int" ],
					"patching_rect" : [ 561.0, 569.0, 28.0, 22.0 ],
					"text" : "abs"
				}

			}
, 			{
				"box" : 				{
					"id" : "obj-242",
					"maxclass" : "newobj",
					"numinlets" : 1,
					"numoutlets" : 1,
					"outlettype" : [ "int" ],
					"patching_rect" : [ 525.0, 569.0, 28.0, 22.0 ],
					"text" : "abs"
				}

			}
, 			{
				"box" : 				{
					"id" : "obj-233",
					"maxclass" : "newobj",
					"numinlets" : 1,
					"numoutlets" : 3,
					"outlettype" : [ "", "", "" ],
					"patching_rect" : [ 355.0, 338.0, 53.0, 22.0 ],
					"text" : "link.beat"
				}

			}
, 			{
				"box" : 				{
					"id" : "obj-232",
					"maxclass" : "newobj",
					"numinlets" : 1,
					"numoutlets" : 1,
					"outlettype" : [ "" ],
					"patching_rect" : [ 114.0, 338.0, 70.0, 22.0 ],
					"text" : "loadmess 1"
				}

			}
, 			{
				"box" : 				{
					"id" : "obj-228",
					"maxclass" : "newobj",
					"numinlets" : 1,
					"numoutlets" : 1,
					"outlettype" : [ "" ],
					"patching_rect" : [ 561.0, 481.0, 70.0, 22.0 ],
					"text" : "loadmess 7"
				}

			}
, 			{
				"box" : 				{
					"id" : "obj-229",
					"maxclass" : "newobj",
					"numinlets" : 1,
					"numoutlets" : 1,
					"outlettype" : [ "" ],
					"patching_rect" : [ 525.0, 446.0, 70.0, 22.0 ],
					"text" : "loadmess 0"
				}

			}
, 			{
				"box" : 				{
					"id" : "obj-230",
					"maxclass" : "message",
					"numinlets" : 2,
					"numoutlets" : 1,
					"outlettype" : [ "" ],
					"patching_rect" : [ 462.0, 526.0, 61.0, 22.0 ],
					"text" : "setmin $1"
				}

			}
, 			{
				"box" : 				{
					"id" : "obj-231",
					"maxclass" : "rslider",
					"min" : -7.0,
					"numinlets" : 2,
					"numoutlets" : 2,
					"outlettype" : [ "", "" ],
					"parameter_enable" : 0,
					"patching_rect" : [ 525.0, 526.0, 55.0, 15.0 ],
					"presentation" : 1,
					"presentation_rect" : [ 812.5, 465.0, 20.0, 200.0 ],
					"size" : 8.0
				}

			}
, 			{
				"box" : 				{
					"id" : "obj-226",
					"maxclass" : "newobj",
					"numinlets" : 1,
					"numoutlets" : 1,
					"outlettype" : [ "" ],
					"patching_rect" : [ 260.0, 450.0, 70.0, 22.0 ],
					"text" : "loadmess 0"
				}

			}
, 			{
				"box" : 				{
					"id" : "obj-221",
					"maxclass" : "message",
					"numinlets" : 2,
					"numoutlets" : 1,
					"outlettype" : [ "" ],
					"patching_rect" : [ 260.0, 537.0, 61.0, 22.0 ],
					"text" : "setmin $1"
				}

			}
, 			{
				"box" : 				{
					"id" : "obj-215",
					"maxclass" : "rslider",
					"numinlets" : 2,
					"numoutlets" : 2,
					"outlettype" : [ "", "" ],
					"parameter_enable" : 0,
					"patching_rect" : [ 260.0, 509.0, 55.0, 15.0 ],
					"presentation" : 1,
					"presentation_rect" : [ 610.5, 443.0, 200.0, 20.0 ],
					"size" : 8.0
				}

			}
, 			{
				"box" : 				{
					"attr" : "tempo",
					"id" : "obj-209",
					"ignoreclick" : 1,
					"maxclass" : "attrui",
					"numinlets" : 1,
					"numoutlets" : 1,
					"outlettype" : [ "" ],
					"parameter_enable" : 0,
					"patching_rect" : [ 212.5, 225.0, 150.0, 22.0 ],
					"presentation" : 1,
					"presentation_rect" : [ 464.5, 515.0, 120.0, 22.0 ],
					"text_width" : 60.0,
					"textcolor" : [ 0.623529411764706, 0.623529411764706, 0.623529411764706, 1.0 ]
				}

			}
, 			{
				"box" : 				{
					"id" : "obj-208",
					"maxclass" : "newobj",
					"numinlets" : 1,
					"numoutlets" : 3,
					"outlettype" : [ "", "", "" ],
					"patching_rect" : [ 189.0, 338.0, 53.0, 22.0 ],
					"text" : "link.beat"
				}

			}
, 			{
				"box" : 				{
					"id" : "obj-205",
					"maxclass" : "newobj",
					"numinlets" : 3,
					"numoutlets" : 1,
					"outlettype" : [ "" ],
					"patching_rect" : [ 575.0, 857.0, 99.0, 22.0 ],
					"text" : "expr $f1+$f2+$f3"
				}

			}
, 			{
				"box" : 				{
					"id" : "obj-152",
					"maxclass" : "comment",
					"numinlets" : 1,
					"numoutlets" : 0,
					"patching_rect" : [ 1941.0, 1151.0, 80.0, 20.0 ],
					"presentation" : 1,
					"presentation_rect" : [ 242.0, 304.0, 47.0, 20.0 ],
					"text" : "bypass",
					"textjustification" : 2
				}

			}
, 			{
				"box" : 				{
					"id" : "obj-153",
					"maxclass" : "toggle",
					"numinlets" : 1,
					"numoutlets" : 1,
					"outlettype" : [ "int" ],
					"parameter_enable" : 0,
					"patching_rect" : [ 1915.0, 1149.0, 24.0, 24.0 ],
					"presentation" : 1,
					"presentation_rect" : [ 291.0, 302.0, 24.0, 24.0 ]
				}

			}
, 			{
				"box" : 				{
					"id" : "obj-154",
					"maxclass" : "message",
					"numinlets" : 2,
					"numoutlets" : 1,
					"outlettype" : [ "" ],
					"patching_rect" : [ 1915.0, 1193.0, 63.0, 22.0 ],
					"text" : "bypass $1"
				}

			}
, 			{
				"box" : 				{
					"id" : "obj-155",
					"maxclass" : "newobj",
					"numinlets" : 1,
					"numoutlets" : 1,
					"outlettype" : [ "bang" ],
					"patching_rect" : [ 1794.0, 1331.0, 58.0, 22.0 ],
					"text" : "loadbang"
				}

			}
, 			{
				"box" : 				{
					"id" : "obj-156",
					"maxclass" : "message",
					"numinlets" : 2,
					"numoutlets" : 1,
					"outlettype" : [ "" ],
					"patching_rect" : [ 1854.0, 1331.0, 40.0, 22.0 ],
					"text" : "set \" \""
				}

			}
, 			{
				"box" : 				{
					"id" : "obj-157",
					"maxclass" : "newobj",
					"numinlets" : 2,
					"numoutlets" : 2,
					"outlettype" : [ "", "" ],
					"patching_rect" : [ 1867.0, 1193.0, 46.0, 22.0 ],
					"text" : "route 0"
				}

			}
, 			{
				"box" : 				{
					"id" : "obj-158",
					"maxclass" : "comment",
					"numinlets" : 1,
					"numoutlets" : 0,
					"patching_rect" : [ 1894.0, 1310.0, 150.0, 20.0 ],
					"presentation" : 1,
					"presentation_rect" : [ 23.0, 279.0, 56.0, 20.0 ],
					"text" : "Current:",
					"textjustification" : 2
				}

			}
, 			{
				"box" : 				{
					"id" : "obj-159",
					"maxclass" : "message",
					"numinlets" : 2,
					"numoutlets" : 1,
					"outlettype" : [ "" ],
					"patching_rect" : [ 1894.0, 1228.0, 41.0, 22.0 ],
					"text" : "set $1"
				}

			}
, 			{
				"box" : 				{
					"id" : "obj-160",
					"maxclass" : "comment",
					"numinlets" : 1,
					"numoutlets" : 0,
					"patching_rect" : [ 1894.0, 1332.0, 150.0, 20.0 ],
					"presentation" : 1,
					"presentation_rect" : [ 81.0, 279.0, 192.0, 20.0 ],
					"text" : " "
				}

			}
, 			{
				"box" : 				{
					"id" : "obj-161",
					"maxclass" : "newobj",
					"numinlets" : 1,
					"numoutlets" : 3,
					"outlettype" : [ "", "", "" ],
					"patching_rect" : [ 1867.0, 1162.0, 40.0, 22.0 ],
					"restore" : [ "TX16Wx" ],
					"saved_object_attributes" : 					{
						"parameter_enable" : 0,
						"parameter_mappable" : 0
					}
,
					"text" : "pattr",
					"varname" : "u041004227[2]"
				}

			}
, 			{
				"box" : 				{
					"id" : "obj-162",
					"maxclass" : "textbutton",
					"numinlets" : 1,
					"numoutlets" : 3,
					"outlettype" : [ "", "", "int" ],
					"parameter_enable" : 0,
					"patching_rect" : [ 1773.0, 1069.0, 100.0, 20.0 ],
					"presentation" : 1,
					"presentation_rect" : [ 275.0, 255.0, 40.0, 22.0 ],
					"text" : "Load"
				}

			}
, 			{
				"box" : 				{
					"id" : "obj-163",
					"maxclass" : "newobj",
					"numinlets" : 2,
					"numoutlets" : 2,
					"outlettype" : [ "", "" ],
					"patching_rect" : [ 1773.0, 1104.0, 44.0, 22.0 ],
					"text" : "list.reg"
				}

			}
, 			{
				"box" : 				{
					"id" : "obj-164",
					"maxclass" : "comment",
					"numinlets" : 1,
					"numoutlets" : 0,
					"patching_rect" : [ 1894.0, 1288.0, 150.0, 20.0 ],
					"presentation" : 1,
					"presentation_rect" : [ 81.0, 233.0, 150.0, 20.0 ],
					"text" : "fx2"
				}

			}
, 			{
				"box" : 				{
					"id" : "obj-165",
					"maxclass" : "message",
					"numinlets" : 2,
					"numoutlets" : 1,
					"outlettype" : [ "" ],
					"patching_rect" : [ 1823.0, 1162.0, 35.0, 22.0 ],
					"presentation" : 1,
					"presentation_rect" : [ 275.0, 278.0, 40.0, 22.0 ],
					"text" : "open",
					"textjustification" : 1
				}

			}
, 			{
				"box" : 				{
					"id" : "obj-166",
					"maxclass" : "message",
					"numinlets" : 2,
					"numoutlets" : 1,
					"outlettype" : [ "" ],
					"patching_rect" : [ 1773.0, 1162.0, 48.0, 22.0 ],
					"text" : "plug $1"
				}

			}
, 			{
				"box" : 				{
					"autosave" : 1,
					"bgmode" : 0,
					"border" : 0,
					"clickthrough" : 0,
					"id" : "obj-167",
					"maxclass" : "newobj",
					"numinlets" : 2,
					"numoutlets" : 8,
					"offset" : [ 0.0, 0.0 ],
					"outlettype" : [ "signal", "signal", "", "list", "int", "", "", "" ],
					"patching_rect" : [ 1773.0, 1246.0, 92.5, 22.0 ],
					"save" : [ "#N", "vst~", "loaduniqueid", 0, ";" ],
					"saved_attribute_attributes" : 					{
						"valueof" : 						{
							"parameter_invisible" : 1,
							"parameter_longname" : "vst~[2]",
							"parameter_modmode" : 0,
							"parameter_shortname" : "vst~[2]",
							"parameter_type" : 3
						}

					}
,
					"saved_object_attributes" : 					{
						"parameter_enable" : 1,
						"parameter_mappable" : 0
					}
,
					"text" : "vst~",
					"varname" : "vst~[2]",
					"viewvisibility" : 0
				}

			}
, 			{
				"box" : 				{
					"id" : "obj-7",
					"maxclass" : "newobj",
					"numinlets" : 1,
					"numoutlets" : 1,
					"outlettype" : [ "bang" ],
					"patching_rect" : [ 1502.0, 1331.0, 58.0, 22.0 ],
					"text" : "loadbang"
				}

			}
, 			{
				"box" : 				{
					"id" : "obj-168",
					"maxclass" : "message",
					"numinlets" : 2,
					"numoutlets" : 1,
					"outlettype" : [ "" ],
					"patching_rect" : [ 1562.0, 1331.0, 40.0, 22.0 ],
					"text" : "set \" \""
				}

			}
, 			{
				"box" : 				{
					"id" : "obj-169",
					"maxclass" : "newobj",
					"numinlets" : 2,
					"numoutlets" : 2,
					"outlettype" : [ "", "" ],
					"patching_rect" : [ 1575.0, 1193.0, 46.0, 22.0 ],
					"text" : "route 0"
				}

			}
, 			{
				"box" : 				{
					"id" : "obj-20",
					"maxclass" : "comment",
					"numinlets" : 1,
					"numoutlets" : 0,
					"patching_rect" : [ 1602.0, 1310.0, 150.0, 20.0 ],
					"presentation" : 1,
					"presentation_rect" : [ 23.0, 179.0, 56.0, 20.0 ],
					"text" : "Current:",
					"textjustification" : 2
				}

			}
, 			{
				"box" : 				{
					"id" : "obj-21",
					"maxclass" : "message",
					"numinlets" : 2,
					"numoutlets" : 1,
					"outlettype" : [ "" ],
					"patching_rect" : [ 1602.0, 1228.0, 41.0, 22.0 ],
					"text" : "set $1"
				}

			}
, 			{
				"box" : 				{
					"id" : "obj-170",
					"maxclass" : "comment",
					"numinlets" : 1,
					"numoutlets" : 0,
					"patching_rect" : [ 1602.0, 1332.0, 150.0, 20.0 ],
					"presentation" : 1,
					"presentation_rect" : [ 81.0, 179.0, 192.0, 20.0 ],
					"text" : " "
				}

			}
, 			{
				"box" : 				{
					"id" : "obj-25",
					"maxclass" : "newobj",
					"numinlets" : 1,
					"numoutlets" : 3,
					"outlettype" : [ "", "", "" ],
					"patching_rect" : [ 1575.0, 1162.0, 40.0, 22.0 ],
					"restore" : [ "TX16Wx" ],
					"saved_object_attributes" : 					{
						"parameter_enable" : 0,
						"parameter_mappable" : 0
					}
,
					"text" : "pattr",
					"varname" : "u041004227[1]"
				}

			}
, 			{
				"box" : 				{
					"id" : "obj-171",
					"maxclass" : "textbutton",
					"numinlets" : 1,
					"numoutlets" : 3,
					"outlettype" : [ "", "", "int" ],
					"parameter_enable" : 0,
					"patching_rect" : [ 1481.0, 1069.0, 100.0, 20.0 ],
					"presentation" : 1,
					"presentation_rect" : [ 275.0, 156.0, 40.0, 20.0 ],
					"text" : "Load"
				}

			}
, 			{
				"box" : 				{
					"id" : "obj-172",
					"maxclass" : "newobj",
					"numinlets" : 2,
					"numoutlets" : 2,
					"outlettype" : [ "", "" ],
					"patching_rect" : [ 1481.0, 1104.0, 44.0, 22.0 ],
					"text" : "list.reg"
				}

			}
, 			{
				"box" : 				{
					"id" : "obj-173",
					"maxclass" : "comment",
					"numinlets" : 1,
					"numoutlets" : 0,
					"patching_rect" : [ 1602.0, 1288.0, 150.0, 20.0 ],
					"presentation" : 1,
					"presentation_rect" : [ 81.0, 133.0, 150.0, 20.0 ],
					"text" : "fx1"
				}

			}
, 			{
				"box" : 				{
					"id" : "obj-38",
					"maxclass" : "message",
					"numinlets" : 2,
					"numoutlets" : 1,
					"outlettype" : [ "" ],
					"patching_rect" : [ 1531.0, 1162.0, 35.0, 22.0 ],
					"presentation" : 1,
					"presentation_rect" : [ 275.0, 178.0, 40.0, 22.0 ],
					"text" : "open",
					"textjustification" : 1
				}

			}
, 			{
				"box" : 				{
					"id" : "obj-42",
					"maxclass" : "message",
					"numinlets" : 2,
					"numoutlets" : 1,
					"outlettype" : [ "" ],
					"patching_rect" : [ 1481.0, 1162.0, 48.0, 22.0 ],
					"text" : "plug $1"
				}

			}
, 			{
				"box" : 				{
					"autosave" : 1,
					"bgmode" : 0,
					"border" : 0,
					"clickthrough" : 0,
					"id" : "obj-174",
					"maxclass" : "newobj",
					"numinlets" : 2,
					"numoutlets" : 8,
					"offset" : [ 0.0, 0.0 ],
					"outlettype" : [ "signal", "signal", "", "list", "int", "", "", "" ],
					"patching_rect" : [ 1481.0, 1246.0, 92.5, 22.0 ],
					"save" : [ "#N", "vst~", "loaduniqueid", 0, ";" ],
					"saved_attribute_attributes" : 					{
						"valueof" : 						{
							"parameter_invisible" : 1,
							"parameter_longname" : "vst~[1]",
							"parameter_modmode" : 0,
							"parameter_shortname" : "vst~[1]",
							"parameter_type" : 3
						}

					}
,
					"saved_object_attributes" : 					{
						"parameter_enable" : 1,
						"parameter_mappable" : 0
					}
,
					"text" : "vst~",
					"varname" : "vst~[1]",
					"viewvisibility" : 0
				}

			}
, 			{
				"box" : 				{
					"id" : "obj-49",
					"maxclass" : "newobj",
					"numinlets" : 1,
					"numoutlets" : 1,
					"outlettype" : [ "bang" ],
					"patching_rect" : [ 1209.0, 1331.0, 58.0, 22.0 ],
					"text" : "loadbang"
				}

			}
, 			{
				"box" : 				{
					"id" : "obj-175",
					"maxclass" : "message",
					"numinlets" : 2,
					"numoutlets" : 1,
					"outlettype" : [ "" ],
					"patching_rect" : [ 1269.0, 1331.0, 40.0, 22.0 ],
					"text" : "set \" \""
				}

			}
, 			{
				"box" : 				{
					"id" : "obj-9",
					"maxclass" : "newobj",
					"numinlets" : 2,
					"numoutlets" : 2,
					"outlettype" : [ "", "" ],
					"patching_rect" : [ 1282.0, 1193.0, 46.0, 22.0 ],
					"text" : "route 0"
				}

			}
, 			{
				"box" : 				{
					"id" : "obj-58",
					"maxclass" : "textbutton",
					"numinlets" : 1,
					"numoutlets" : 3,
					"outlettype" : [ "", "", "int" ],
					"parameter_enable" : 0,
					"patching_rect" : [ 1874.0, 812.0, 130.0, 20.0 ],
					"presentation" : 1,
					"presentation_rect" : [ 367.0, 77.0, 130.0, 20.0 ],
					"text" : "Load presets from file"
				}

			}
, 			{
				"box" : 				{
					"id" : "obj-176",
					"maxclass" : "textbutton",
					"numinlets" : 1,
					"numoutlets" : 3,
					"outlettype" : [ "", "", "int" ],
					"parameter_enable" : 0,
					"patching_rect" : [ 1711.0, 812.0, 130.0, 20.0 ],
					"presentation" : 1,
					"presentation_rect" : [ 367.0, 55.0, 130.0, 20.0 ],
					"text" : "Save presets to file"
				}

			}
, 			{
				"box" : 				{
					"id" : "obj-177",
					"maxclass" : "message",
					"numinlets" : 2,
					"numoutlets" : 1,
					"outlettype" : [ "" ],
					"patching_rect" : [ 1747.0, 867.0, 33.0, 22.0 ],
					"text" : "read"
				}

			}
, 			{
				"box" : 				{
					"id" : "obj-12",
					"maxclass" : "message",
					"numinlets" : 2,
					"numoutlets" : 1,
					"outlettype" : [ "" ],
					"patching_rect" : [ 1711.0, 867.0, 34.0, 22.0 ],
					"text" : "write"
				}

			}
, 			{
				"box" : 				{
					"id" : "obj-178",
					"maxclass" : "newobj",
					"numinlets" : 1,
					"numoutlets" : 1,
					"outlettype" : [ "bang" ],
					"patching_rect" : [ 1206.0, 1409.0, 58.0, 22.0 ],
					"text" : "loadbang"
				}

			}
, 			{
				"box" : 				{
					"bubble" : 1,
					"bubblepoint" : 0.46,
					"fontname" : "Arial",
					"fontsize" : 13.0,
					"id" : "obj-179",
					"linecount" : 4,
					"maxclass" : "comment",
					"numinlets" : 1,
					"numoutlets" : 0,
					"patching_rect" : [ 1314.0, 1464.0, 182.0, 69.0 ],
					"presentation" : 1,
					"presentation_linecount" : 4,
					"presentation_rect" : [ 499.0, 105.0, 182.0, 69.0 ],
					"text" : "Shift-click to store a preset.\nClick to recall.\nMake sure audio is on when saving/recalling."
				}

			}
, 			{
				"box" : 				{
					"bubblesize" : 21,
					"id" : "obj-180",
					"maxclass" : "preset",
					"numinlets" : 1,
					"numoutlets" : 5,
					"outlettype" : [ "preset", "int", "preset", "int", "" ],
					"patching_rect" : [ 1206.0, 1458.0, 100.0, 80.0 ],
					"pattrstorage" : "green",
					"presentation" : 1,
					"presentation_rect" : [ 367.0, 99.0, 130.0, 80.0 ]
				}

			}
, 			{
				"box" : 				{
					"fontname" : "Arial",
					"fontsize" : 13.0,
					"id" : "obj-181",
					"maxclass" : "message",
					"numinlets" : 2,
					"numoutlets" : 1,
					"outlettype" : [ "" ],
					"patching_rect" : [ 1206.0, 1433.0, 115.0, 23.0 ],
					"text" : "pattrstorage green"
				}

			}
, 			{
				"box" : 				{
					"id" : "obj-182",
					"maxclass" : "message",
					"numinlets" : 2,
					"numoutlets" : 1,
					"outlettype" : [ "" ],
					"patching_rect" : [ 1711.0, 970.0, 29.5, 22.0 ],
					"text" : "0"
				}

			}
, 			{
				"box" : 				{
					"id" : "obj-183",
					"maxclass" : "newobj",
					"numinlets" : 1,
					"numoutlets" : 1,
					"outlettype" : [ "bang" ],
					"patching_rect" : [ 1711.0, 935.0, 22.0, 22.0 ],
					"text" : "t b"
				}

			}
, 			{
				"box" : 				{
					"id" : "obj-184",
					"maxclass" : "newobj",
					"numinlets" : 1,
					"numoutlets" : 1,
					"outlettype" : [ "" ],
					"patching_rect" : [ 1711.0, 904.0, 107.0, 22.0 ],
					"saved_object_attributes" : 					{
						"client_rect" : [ 100, 134, 454, 262 ],
						"parameter_enable" : 0,
						"parameter_mappable" : 0,
						"storage_rect" : [ 583, 69, 1034, 197 ]
					}
,
					"text" : "pattrstorage green",
					"varname" : "green"
				}

			}
, 			{
				"box" : 				{
					"id" : "obj-11",
					"maxclass" : "comment",
					"numinlets" : 1,
					"numoutlets" : 0,
					"patching_rect" : [ 1309.0, 1310.0, 150.0, 20.0 ],
					"presentation" : 1,
					"presentation_rect" : [ 20.0, 79.0, 59.0, 20.0 ],
					"text" : "Current:",
					"textjustification" : 2
				}

			}
, 			{
				"box" : 				{
					"id" : "obj-185",
					"maxclass" : "message",
					"numinlets" : 2,
					"numoutlets" : 1,
					"outlettype" : [ "" ],
					"patching_rect" : [ 1309.0, 1228.0, 41.0, 22.0 ],
					"text" : "set $1"
				}

			}
, 			{
				"box" : 				{
					"id" : "obj-186",
					"maxclass" : "comment",
					"numinlets" : 1,
					"numoutlets" : 0,
					"patching_rect" : [ 1309.0, 1332.0, 150.0, 20.0 ],
					"presentation" : 1,
					"presentation_rect" : [ 81.0, 79.0, 192.0, 20.0 ],
					"text" : " "
				}

			}
, 			{
				"box" : 				{
					"id" : "obj-6",
					"maxclass" : "newobj",
					"numinlets" : 1,
					"numoutlets" : 3,
					"outlettype" : [ "", "", "" ],
					"patching_rect" : [ 1282.0, 1162.0, 40.0, 22.0 ],
					"restore" : [ "TX16Wx" ],
					"saved_object_attributes" : 					{
						"parameter_enable" : 0,
						"parameter_mappable" : 0
					}
,
					"text" : "pattr",
					"varname" : "u041004227"
				}

			}
, 			{
				"box" : 				{
					"id" : "obj-4",
					"maxclass" : "textbutton",
					"numinlets" : 1,
					"numoutlets" : 3,
					"outlettype" : [ "", "", "int" ],
					"parameter_enable" : 0,
					"patching_rect" : [ 1188.0, 1069.0, 100.0, 20.0 ],
					"presentation" : 1,
					"presentation_rect" : [ 275.0, 56.0, 40.0, 20.0 ],
					"text" : "Load"
				}

			}
, 			{
				"box" : 				{
					"id" : "obj-187",
					"maxclass" : "newobj",
					"numinlets" : 2,
					"numoutlets" : 2,
					"outlettype" : [ "", "" ],
					"patching_rect" : [ 1188.0, 1104.0, 44.0, 22.0 ],
					"text" : "list.reg"
				}

			}
, 			{
				"box" : 				{
					"id" : "obj-188",
					"maxclass" : "newobj",
					"numinlets" : 1,
					"numoutlets" : 4,
					"outlettype" : [ "", "", "", "" ],
					"patching_rect" : [ 1093.0, 810.0, 56.0, 22.0 ],
					"restore" : 					{

					}
,
					"text" : "autopattr",
					"varname" : "u170001464"
				}

			}
, 			{
				"box" : 				{
					"id" : "obj-189",
					"maxclass" : "message",
					"numinlets" : 2,
					"numoutlets" : 1,
					"outlettype" : [ "" ],
					"patching_rect" : [ 1227.0, 886.0, 29.5, 22.0 ],
					"text" : "\" \""
				}

			}
, 			{
				"box" : 				{
					"id" : "obj-190",
					"maxclass" : "newobj",
					"numinlets" : 1,
					"numoutlets" : 1,
					"outlettype" : [ "" ],
					"patching_rect" : [ 1227.0, 921.0, 96.0, 22.0 ],
					"text" : "prepend append"
				}

			}
, 			{
				"box" : 				{
					"id" : "obj-191",
					"maxclass" : "comment",
					"numinlets" : 1,
					"numoutlets" : 0,
					"patching_rect" : [ 1649.0, 1151.0, 80.0, 20.0 ],
					"presentation" : 1,
					"presentation_rect" : [ 242.0, 205.0, 47.0, 20.0 ],
					"text" : "bypass",
					"textjustification" : 2
				}

			}
, 			{
				"box" : 				{
					"id" : "obj-36",
					"maxclass" : "toggle",
					"numinlets" : 1,
					"numoutlets" : 1,
					"outlettype" : [ "int" ],
					"parameter_enable" : 0,
					"patching_rect" : [ 1623.0, 1149.0, 24.0, 24.0 ],
					"presentation" : 1,
					"presentation_rect" : [ 291.0, 203.0, 24.0, 24.0 ]
				}

			}
, 			{
				"box" : 				{
					"id" : "obj-192",
					"maxclass" : "message",
					"numinlets" : 2,
					"numoutlets" : 1,
					"outlettype" : [ "" ],
					"patching_rect" : [ 1623.0, 1193.0, 63.0, 22.0 ],
					"text" : "bypass $1"
				}

			}
, 			{
				"box" : 				{
					"comment" : "",
					"id" : "obj-29",
					"index" : 0,
					"maxclass" : "outlet",
					"numinlets" : 1,
					"numoutlets" : 0,
					"patching_rect" : [ 1773.0, 1441.0, 30.0, 30.0 ]
				}

			}
, 			{
				"box" : 				{
					"id" : "obj-193",
					"items" : [ " ", ",", "++bubbler", ",", "++chebyshev", ",", "++compand", ",", "++decimate", ",", "++delay", ",", "++flipper", ",", "++matrix", ",", "++phasor", ",", "++pitchdelay", ",", "BPB Dirty VHS", ",", "Cardinal FX", ",", "Cardinal Synth", ",", "Cardinal", ",", "Deelay", ",", "Filterstep", ",", "Fracture", ",", "Gatelab", ",", "IVGI2", ",", "LABS", ",", "NeuralAmpModeler", ",", "Panflow", ",", "PaulXStretch", ",", "Ruina", ",", "Saturation Knob", ",", "Sinc Vereor", ",", "Surge XT Effects", ",", "Surge XT", ",", "TAL-Vocoder-2", ",", "TDR Nova", ",", "TX16Wx (legacy id)", ",", "TX16Wx", ",", "ValhallaDelay", ",", "ValhallaFreqEcho", ",", "ValhallaSupermassive", ",", "ValhallaVintageVerb_Fx", ",", "ValhallaVintageVerb_Fx_Reverb", ",", "Virt Vereor" ],
					"maxclass" : "umenu",
					"numinlets" : 1,
					"numoutlets" : 3,
					"outlettype" : [ "int", "", "" ],
					"parameter_enable" : 0,
					"patching_rect" : [ 1711.0, 1037.0, 192.0, 22.0 ],
					"presentation" : 1,
					"presentation_rect" : [ 81.0, 255.0, 192.0, 22.0 ]
				}

			}
, 			{
				"box" : 				{
					"id" : "obj-194",
					"items" : [ " ", ",", "++bubbler", ",", "++chebyshev", ",", "++compand", ",", "++decimate", ",", "++delay", ",", "++flipper", ",", "++matrix", ",", "++phasor", ",", "++pitchdelay", ",", "BPB Dirty VHS", ",", "Cardinal FX", ",", "Cardinal Synth", ",", "Cardinal", ",", "Deelay", ",", "Filterstep", ",", "Fracture", ",", "Gatelab", ",", "IVGI2", ",", "LABS", ",", "NeuralAmpModeler", ",", "Panflow", ",", "PaulXStretch", ",", "Ruina", ",", "Saturation Knob", ",", "Sinc Vereor", ",", "Surge XT Effects", ",", "Surge XT", ",", "TAL-Vocoder-2", ",", "TDR Nova", ",", "TX16Wx (legacy id)", ",", "TX16Wx", ",", "ValhallaDelay", ",", "ValhallaFreqEcho", ",", "ValhallaSupermassive", ",", "ValhallaVintageVerb_Fx", ",", "ValhallaVintageVerb_Fx_Reverb", ",", "Virt Vereor" ],
					"maxclass" : "umenu",
					"numinlets" : 1,
					"numoutlets" : 3,
					"outlettype" : [ "int", "", "" ],
					"parameter_enable" : 0,
					"patching_rect" : [ 1419.0, 1037.0, 192.0, 22.0 ],
					"presentation" : 1,
					"presentation_rect" : [ 81.0, 155.0, 192.0, 22.0 ]
				}

			}
, 			{
				"box" : 				{
					"id" : "obj-195",
					"maxclass" : "comment",
					"numinlets" : 1,
					"numoutlets" : 0,
					"patching_rect" : [ 1309.0, 1288.0, 150.0, 20.0 ],
					"presentation" : 1,
					"presentation_rect" : [ 81.0, 33.0, 150.0, 20.0 ],
					"text" : " instrument"
				}

			}
, 			{
				"box" : 				{
					"id" : "obj-196",
					"maxclass" : "newobj",
					"numinlets" : 1,
					"numoutlets" : 1,
					"outlettype" : [ "bang" ],
					"patching_rect" : [ 1016.0, 810.0, 58.0, 22.0 ],
					"text" : "loadbang"
				}

			}
, 			{
				"box" : 				{
					"id" : "obj-13",
					"maxclass" : "message",
					"numinlets" : 2,
					"numoutlets" : 1,
					"outlettype" : [ "" ],
					"patching_rect" : [ 1340.0, 886.0, 35.0, 22.0 ],
					"text" : "clear"
				}

			}
, 			{
				"box" : 				{
					"id" : "obj-197",
					"maxclass" : "message",
					"numinlets" : 2,
					"numoutlets" : 1,
					"outlettype" : [ "" ],
					"patching_rect" : [ 1238.0, 1162.0, 35.0, 22.0 ],
					"presentation" : 1,
					"presentation_rect" : [ 275.0, 79.0, 40.0, 22.0 ],
					"text" : "open",
					"textjustification" : 1
				}

			}
, 			{
				"box" : 				{
					"id" : "obj-53",
					"maxclass" : "message",
					"numinlets" : 2,
					"numoutlets" : 1,
					"outlettype" : [ "" ],
					"patching_rect" : [ 1188.0, 1162.0, 48.0, 22.0 ],
					"text" : "plug $1"
				}

			}
, 			{
				"box" : 				{
					"autosave" : 1,
					"bgmode" : 0,
					"border" : 0,
					"clickthrough" : 0,
					"id" : "obj-51",
					"maxclass" : "newobj",
					"numinlets" : 2,
					"numoutlets" : 8,
					"offset" : [ 0.0, 0.0 ],
					"outlettype" : [ "signal", "signal", "", "list", "int", "", "", "" ],
					"patching_rect" : [ 1188.0, 1246.0, 92.5, 22.0 ],
					"save" : [ "#N", "vst~", "loaduniqueid", 0, ";" ],
					"saved_attribute_attributes" : 					{
						"valueof" : 						{
							"parameter_invisible" : 1,
							"parameter_longname" : "vst~",
							"parameter_modmode" : 0,
							"parameter_shortname" : "vst~",
							"parameter_type" : 3
						}

					}
,
					"saved_object_attributes" : 					{
						"parameter_enable" : 1,
						"parameter_mappable" : 0
					}
,
					"text" : "vst~",
					"varname" : "vst~",
					"viewvisibility" : 0
				}

			}
, 			{
				"box" : 				{
					"id" : "obj-198",
					"items" : [ " ", ",", "++bubbler", ",", "++chebyshev", ",", "++compand", ",", "++decimate", ",", "++delay", ",", "++flipper", ",", "++matrix", ",", "++phasor", ",", "++pitchdelay", ",", "BPB Dirty VHS", ",", "Cardinal FX", ",", "Cardinal Synth", ",", "Cardinal", ",", "Deelay", ",", "Filterstep", ",", "Fracture", ",", "Gatelab", ",", "IVGI2", ",", "LABS", ",", "NeuralAmpModeler", ",", "Panflow", ",", "PaulXStretch", ",", "Ruina", ",", "Saturation Knob", ",", "Sinc Vereor", ",", "Surge XT Effects", ",", "Surge XT", ",", "TAL-Vocoder-2", ",", "TDR Nova", ",", "TX16Wx (legacy id)", ",", "TX16Wx", ",", "ValhallaDelay", ",", "ValhallaFreqEcho", ",", "ValhallaSupermassive", ",", "ValhallaVintageVerb_Fx", ",", "ValhallaVintageVerb_Fx_Reverb", ",", "Virt Vereor" ],
					"maxclass" : "umenu",
					"numinlets" : 1,
					"numoutlets" : 3,
					"outlettype" : [ "int", "", "" ],
					"parameter_enable" : 0,
					"patching_rect" : [ 1127.0, 1037.0, 192.0, 22.0 ],
					"presentation" : 1,
					"presentation_rect" : [ 81.0, 55.0, 192.0, 22.0 ]
				}

			}
, 			{
				"box" : 				{
					"id" : "obj-199",
					"maxclass" : "newobj",
					"numinlets" : 1,
					"numoutlets" : 1,
					"outlettype" : [ "" ],
					"patching_rect" : [ 1127.0, 997.0, 104.0, 22.0 ],
					"text" : "prepend append"
				}

			}
, 			{
				"box" : 				{
					"id" : "obj-200",
					"maxclass" : "message",
					"numinlets" : 2,
					"numoutlets" : 1,
					"outlettype" : [ "" ],
					"patching_rect" : [ 1016.0, 886.0, 49.0, 22.0 ],
					"text" : "listvst3"
				}

			}
, 			{
				"box" : 				{
					"id" : "obj-201",
					"maxclass" : "newobj",
					"numinlets" : 4,
					"numoutlets" : 4,
					"outlettype" : [ "", "", "", "" ],
					"patching_rect" : [ 1016.0, 965.0, 185.0, 22.0 ],
					"text" : "route plug_vst plug_au plug_vst3"
				}

			}
, 			{
				"box" : 				{
					"id" : "obj-202",
					"maxclass" : "newobj",
					"numinlets" : 1,
					"numoutlets" : 2,
					"outlettype" : [ "", "" ],
					"patching_rect" : [ 1016.0, 938.0, 53.0, 22.0 ],
					"text" : "vstscan"
				}

			}
, 			{
				"box" : 				{
					"id" : "obj-10",
					"maxclass" : "newobj",
					"numinlets" : 2,
					"numoutlets" : 1,
					"outlettype" : [ "" ],
					"patching_rect" : [ 114.0, 529.0, 32.0, 22.0 ],
					"text" : "gate"
				}

			}
, 			{
				"box" : 				{
					"id" : "obj-2",
					"maxclass" : "newobj",
					"numinlets" : 2,
					"numoutlets" : 1,
					"outlettype" : [ "" ],
					"patching_rect" : [ 376.0, 529.0, 32.0, 22.0 ],
					"text" : "gate"
				}

			}
, 			{
				"box" : 				{
					"id" : "obj-1",
					"maxclass" : "newobj",
					"numinlets" : 1,
					"numoutlets" : 3,
					"outlettype" : [ "", "int", "int" ],
					"patching_rect" : [ 575.0, 935.0, 61.0, 22.0 ],
					"text" : "change 0."
				}

			}
, 			{
				"box" : 				{
					"id" : "obj-148",
					"maxclass" : "comment",
					"numinlets" : 1,
					"numoutlets" : 0,
					"patching_rect" : [ 607.0, 104.0, 150.0, 20.0 ],
					"presentation" : 1,
					"presentation_rect" : [ 81.0, 414.0, 150.0, 20.0 ],
					"text" : "tree controls"
				}

			}
, 			{
				"box" : 				{
					"id" : "obj-146",
					"maxclass" : "comment",
					"numinlets" : 1,
					"numoutlets" : 0,
					"patching_rect" : [ 127.0, 33.0, 150.0, 20.0 ],
					"presentation" : 1,
					"presentation_rect" : [ 107.0, 390.0, 150.0, 20.0 ],
					"text" : "graphics on/off"
				}

			}
, 			{
				"box" : 				{
					"id" : "obj-143",
					"maxclass" : "comment",
					"numinlets" : 1,
					"numoutlets" : 0,
					"patching_rect" : [ 877.0, 524.0, 150.0, 20.0 ],
					"presentation" : 1,
					"presentation_rect" : [ 880.5, 238.0, 86.0, 20.0 ],
					"text" : "note duration"
				}

			}
, 			{
				"box" : 				{
					"id" : "obj-139",
					"maxclass" : "newobj",
					"numinlets" : 1,
					"numoutlets" : 2,
					"outlettype" : [ "bang", "int" ],
					"patching_rect" : [ 575.0, 977.0, 29.5, 22.0 ],
					"text" : "t b i"
				}

			}
, 			{
				"box" : 				{
					"id" : "obj-138",
					"maxclass" : "newobj",
					"numinlets" : 6,
					"numoutlets" : 1,
					"outlettype" : [ "" ],
					"patching_rect" : [ 575.0, 897.0, 97.0, 22.0 ],
					"text" : "scale 0. 3. 0 127"
				}

			}
, 			{
				"box" : 				{
					"id" : "obj-104",
					"maxclass" : "comment",
					"numinlets" : 1,
					"numoutlets" : 0,
					"patching_rect" : [ 575.0, 1044.0, 180.0, 20.0 ],
					"presentation" : 1,
					"presentation_rect" : [ 609.5, 238.0, 180.0, 20.0 ],
					"text" : "pick pitch with this keyboard"
				}

			}
, 			{
				"box" : 				{
					"fontname" : "Arial",
					"fontsize" : 13.0,
					"id" : "obj-61",
					"maxclass" : "newobj",
					"numinlets" : 7,
					"numoutlets" : 2,
					"outlettype" : [ "int", "" ],
					"patching_rect" : [ 576.0, 1285.0, 108.0, 23.0 ],
					"text" : "midiformat"
				}

			}
, 			{
				"box" : 				{
					"fontname" : "Arial",
					"fontsize" : 13.0,
					"id" : "obj-62",
					"maxclass" : "newobj",
					"numinlets" : 2,
					"numoutlets" : 1,
					"outlettype" : [ "" ],
					"patching_rect" : [ 574.0, 1243.0, 32.5, 23.0 ],
					"text" : "join"
				}

			}
, 			{
				"box" : 				{
					"fontname" : "Arial",
					"fontsize" : 13.0,
					"id" : "obj-105",
					"maxclass" : "newobj",
					"numinlets" : 3,
					"numoutlets" : 2,
					"outlettype" : [ "float", "float" ],
					"patching_rect" : [ 575.0, 1205.0, 109.0, 23.0 ],
					"text" : "makenote 60 500"
				}

			}
, 			{
				"box" : 				{
					"id" : "obj-64",
					"maxclass" : "kslider",
					"numinlets" : 2,
					"numoutlets" : 2,
					"outlettype" : [ "int", "int" ],
					"parameter_enable" : 0,
					"patching_rect" : [ 575.0, 1064.0, 336.0, 53.0 ],
					"presentation" : 1,
					"presentation_rect" : [ 610.5, 262.0, 336.0, 53.0 ]
				}

			}
, 			{
				"box" : 				{
					"id" : "obj-99",
					"maxclass" : "comment",
					"numinlets" : 1,
					"numoutlets" : 0,
					"patching_rect" : [ 140.0, 491.0, 111.0, 20.0 ],
					"presentation" : 1,
					"presentation_rect" : [ 636.5, 369.0, 150.0, 20.0 ],
					"text" : "horizontal on/off"
				}

			}
, 			{
				"box" : 				{
					"id" : "obj-101",
					"maxclass" : "toggle",
					"numinlets" : 1,
					"numoutlets" : 1,
					"outlettype" : [ "int" ],
					"parameter_enable" : 0,
					"patching_rect" : [ 114.0, 489.0, 24.0, 24.0 ],
					"presentation" : 1,
					"presentation_rect" : [ 610.5, 367.0, 24.0, 24.0 ]
				}

			}
, 			{
				"box" : 				{
					"id" : "obj-98",
					"maxclass" : "comment",
					"numinlets" : 1,
					"numoutlets" : 0,
					"patching_rect" : [ 402.0, 491.0, 95.0, 20.0 ],
					"presentation" : 1,
					"presentation_rect" : [ 860.5, 467.0, 150.0, 20.0 ],
					"text" : "vertical on/off"
				}

			}
, 			{
				"box" : 				{
					"id" : "obj-92",
					"maxclass" : "toggle",
					"numinlets" : 1,
					"numoutlets" : 1,
					"outlettype" : [ "int" ],
					"parameter_enable" : 0,
					"patching_rect" : [ 376.0, 489.0, 24.0, 24.0 ],
					"presentation" : 1,
					"presentation_rect" : [ 834.5, 465.0, 24.0, 24.0 ]
				}

			}
, 			{
				"box" : 				{
					"id" : "obj-89",
					"maxclass" : "message",
					"numinlets" : 2,
					"numoutlets" : 1,
					"outlettype" : [ "" ],
					"patching_rect" : [ 319.0, 671.0, 81.0, 22.0 ],
					"text" : "clear, $1 $2 1"
				}

			}
, 			{
				"box" : 				{
					"bgcolor" : [ 0.149019607843137, 0.149019607843137, 0.149019607843137, 0.0 ],
					"color" : [ 0.952941176470588, 0.619607843137255, 0.619607843137255, 0.8 ],
					"elementcolor" : [ 0.184313725490196, 0.184313725490196, 0.184313725490196, 0.0 ],
					"id" : "obj-87",
					"maxclass" : "matrixctrl",
					"numinlets" : 1,
					"numoutlets" : 2,
					"outlettype" : [ "list", "list" ],
					"parameter_enable" : 0,
					"patching_rect" : [ 319.0, 746.0, 201.0, 200.0 ],
					"presentation" : 1,
					"presentation_rect" : [ 610.5, 465.0, 200.0, 200.0 ],
					"rows" : 8,
					"verticalmargin" : 0
				}

			}
, 			{
				"box" : 				{
					"id" : "obj-86",
					"maxclass" : "comment",
					"numinlets" : 1,
					"numoutlets" : 0,
					"patching_rect" : [ 823.0, 256.0, 150.0, 20.0 ],
					"presentation" : 1,
					"presentation_rect" : [ 81.0, 529.0, 150.0, 20.0 ],
					"text" : "wobble intensity"
				}

			}
, 			{
				"box" : 				{
					"id" : "obj-85",
					"maxclass" : "comment",
					"numinlets" : 1,
					"numoutlets" : 0,
					"patching_rect" : [ 826.0, 207.0, 150.0, 20.0 ],
					"presentation" : 1,
					"presentation_rect" : [ 81.0, 483.0, 150.0, 20.0 ],
					"text" : "wobble speed"
				}

			}
, 			{
				"box" : 				{
					"format" : 6,
					"id" : "obj-83",
					"maxclass" : "flonum",
					"maximum" : 10.0,
					"minimum" : 0.1,
					"numinlets" : 1,
					"numoutlets" : 2,
					"outlettype" : [ "", "bang" ],
					"parameter_enable" : 0,
					"patching_rect" : [ 776.0, 206.0, 50.0, 22.0 ],
					"presentation" : 1,
					"presentation_rect" : [ 81.0, 505.0, 50.0, 22.0 ]
				}

			}
, 			{
				"box" : 				{
					"format" : 6,
					"id" : "obj-81",
					"maxclass" : "flonum",
					"maximum" : 100.0,
					"minimum" : 0.0,
					"numinlets" : 1,
					"numoutlets" : 2,
					"outlettype" : [ "", "bang" ],
					"parameter_enable" : 0,
					"patching_rect" : [ 771.0, 255.0, 50.0, 22.0 ],
					"presentation" : 1,
					"presentation_rect" : [ 81.0, 551.0, 50.0, 22.0 ]
				}

			}
, 			{
				"box" : 				{
					"id" : "obj-79",
					"maxclass" : "newobj",
					"numinlets" : 2,
					"numoutlets" : 1,
					"outlettype" : [ "float" ],
					"patching_rect" : [ 689.0, 255.0, 29.5, 22.0 ],
					"text" : "* 0."
				}

			}
, 			{
				"box" : 				{
					"id" : "obj-76",
					"maxclass" : "newobj",
					"numinlets" : 2,
					"numoutlets" : 1,
					"outlettype" : [ "float" ],
					"patching_rect" : [ 689.0, 225.0, 64.0, 22.0 ],
					"text" : "snapshot~"
				}

			}
, 			{
				"box" : 				{
					"id" : "obj-75",
					"maxclass" : "newobj",
					"numinlets" : 2,
					"numoutlets" : 1,
					"outlettype" : [ "float" ],
					"patching_rect" : [ 689.0, 284.0, 29.5, 22.0 ],
					"text" : "+ 0."
				}

			}
, 			{
				"box" : 				{
					"id" : "obj-74",
					"maxclass" : "newobj",
					"numinlets" : 1,
					"numoutlets" : 1,
					"outlettype" : [ "signal" ],
					"patching_rect" : [ 689.0, 197.0, 60.0, 22.0 ],
					"text" : "rand~ 0.1"
				}

			}
, 			{
				"box" : 				{
					"id" : "obj-71",
					"maxclass" : "comment",
					"numinlets" : 1,
					"numoutlets" : 0,
					"patching_rect" : [ 1064.0, 159.0, 49.0, 20.0 ],
					"presentation" : 1,
					"presentation_rect" : [ 289.0, 437.0, 49.0, 20.0 ],
					"text" : "y"
				}

			}
, 			{
				"box" : 				{
					"id" : "obj-72",
					"maxclass" : "newobj",
					"numinlets" : 1,
					"numoutlets" : 1,
					"outlettype" : [ "" ],
					"patching_rect" : [ 1012.0, 126.0, 77.0, 22.0 ],
					"text" : "loadmess -1."
				}

			}
, 			{
				"box" : 				{
					"format" : 6,
					"id" : "obj-73",
					"maxclass" : "flonum",
					"maximum" : 3.0,
					"minimum" : -5.0,
					"numinlets" : 1,
					"numoutlets" : 2,
					"outlettype" : [ "", "bang" ],
					"parameter_enable" : 0,
					"patching_rect" : [ 1012.0, 158.0, 50.0, 22.0 ],
					"presentation" : 1,
					"presentation_rect" : [ 288.0, 459.0, 50.0, 22.0 ]
				}

			}
, 			{
				"box" : 				{
					"id" : "obj-70",
					"maxclass" : "comment",
					"numinlets" : 1,
					"numoutlets" : 0,
					"patching_rect" : [ 961.0, 159.0, 49.0, 20.0 ],
					"presentation" : 1,
					"presentation_rect" : [ 237.0, 437.0, 49.0, 20.0 ],
					"text" : "x"
				}

			}
, 			{
				"box" : 				{
					"id" : "obj-69",
					"maxclass" : "comment",
					"numinlets" : 1,
					"numoutlets" : 0,
					"patching_rect" : [ 865.0, 162.0, 49.0, 20.0 ],
					"presentation" : 1,
					"presentation_rect" : [ 184.0, 437.0, 49.0, 20.0 ],
					"text" : "scale"
				}

			}
, 			{
				"box" : 				{
					"id" : "obj-68",
					"maxclass" : "newobj",
					"numinlets" : 1,
					"numoutlets" : 1,
					"outlettype" : [ "" ],
					"patching_rect" : [ 709.0, 126.0, 80.0, 22.0 ],
					"text" : "loadmess 45."
				}

			}
, 			{
				"box" : 				{
					"id" : "obj-66",
					"maxclass" : "comment",
					"numinlets" : 1,
					"numoutlets" : 0,
					"patching_rect" : [ 760.0, 159.0, 49.0, 20.0 ],
					"presentation" : 1,
					"presentation_rect" : [ 133.0, 437.0, 49.0, 20.0 ],
					"text" : "angle"
				}

			}
, 			{
				"box" : 				{
					"format" : 6,
					"id" : "obj-67",
					"maxclass" : "flonum",
					"maximum" : 135.0,
					"minimum" : 0.0,
					"numinlets" : 1,
					"numoutlets" : 2,
					"outlettype" : [ "", "bang" ],
					"parameter_enable" : 0,
					"patching_rect" : [ 709.0, 158.0, 50.0, 22.0 ],
					"presentation" : 1,
					"presentation_rect" : [ 133.0, 459.0, 50.0, 22.0 ]
				}

			}
, 			{
				"box" : 				{
					"id" : "obj-65",
					"maxclass" : "comment",
					"numinlets" : 1,
					"numoutlets" : 0,
					"patching_rect" : [ 658.0, 159.0, 49.0, 20.0 ],
					"presentation" : 1,
					"presentation_rect" : [ 81.0, 437.0, 49.0, 20.0 ],
					"text" : "length"
				}

			}
, 			{
				"box" : 				{
					"id" : "obj-56",
					"maxclass" : "newobj",
					"numinlets" : 1,
					"numoutlets" : 1,
					"outlettype" : [ "" ],
					"patching_rect" : [ 607.0, 126.0, 73.0, 22.0 ],
					"text" : "loadmess 1."
				}

			}
, 			{
				"box" : 				{
					"id" : "obj-55",
					"maxclass" : "newobj",
					"numinlets" : 1,
					"numoutlets" : 1,
					"outlettype" : [ "" ],
					"patching_rect" : [ 909.0, 126.0, 73.0, 22.0 ],
					"text" : "loadmess 0."
				}

			}
, 			{
				"box" : 				{
					"id" : "obj-54",
					"maxclass" : "newobj",
					"numinlets" : 1,
					"numoutlets" : 1,
					"outlettype" : [ "" ],
					"patching_rect" : [ 810.0, 126.0, 73.0, 22.0 ],
					"text" : "loadmess 1."
				}

			}
, 			{
				"box" : 				{
					"id" : "obj-8",
					"maxclass" : "comment",
					"numinlets" : 1,
					"numoutlets" : 0,
					"patching_rect" : [ 427.5, 371.0, 150.0, 20.0 ],
					"presentation" : 1,
					"presentation_rect" : [ 860.5, 493.0, 150.0, 20.0 ],
					"text" : "vertical forward/reverse"
				}

			}
, 			{
				"box" : 				{
					"id" : "obj-30",
					"maxclass" : "comment",
					"numinlets" : 1,
					"numoutlets" : 0,
					"patching_rect" : [ 227.5, 410.0, 150.0, 20.0 ],
					"presentation" : 1,
					"presentation_rect" : [ 636.5, 395.0, 150.0, 20.0 ],
					"text" : "horizontal forward/reverse"
				}

			}
, 			{
				"box" : 				{
					"id" : "obj-23",
					"maxclass" : "comment",
					"numinlets" : 1,
					"numoutlets" : 0,
					"patching_rect" : [ 216.0, 189.0, 150.0, 20.0 ],
					"presentation" : 1,
					"presentation_rect" : [ 489.5, 467.0, 102.0, 20.0 ],
					"text" : "sequencer"
				}

			}
, 			{
				"box" : 				{
					"id" : "obj-43",
					"maxclass" : "newobj",
					"numinlets" : 2,
					"numoutlets" : 1,
					"outlettype" : [ "" ],
					"patching_rect" : [ 132.0, 61.0, 46.0, 22.0 ],
					"text" : "pack i i"
				}

			}
, 			{
				"box" : 				{
					"id" : "obj-32",
					"maxclass" : "message",
					"numinlets" : 2,
					"numoutlets" : 1,
					"outlettype" : [ "" ],
					"patching_rect" : [ 132.0, 88.0, 61.0, 22.0 ],
					"text" : "dim $1 $2"
				}

			}
, 			{
				"box" : 				{
					"id" : "obj-41",
					"maxclass" : "newobj",
					"numinlets" : 1,
					"numoutlets" : 4,
					"outlettype" : [ "float", "float", "float", "float" ],
					"patching_rect" : [ 575.0, 812.0, 74.0, 22.0 ],
					"text" : "unpack f f f f"
				}

			}
, 			{
				"box" : 				{
					"id" : "obj-40",
					"maxclass" : "newobj",
					"numinlets" : 2,
					"numoutlets" : 2,
					"outlettype" : [ "", "" ],
					"patching_rect" : [ 539.0, 746.0, 55.0, 22.0 ],
					"text" : "zl.slice 3"
				}

			}
, 			{
				"box" : 				{
					"id" : "obj-34",
					"maxclass" : "newobj",
					"numinlets" : 2,
					"numoutlets" : 2,
					"outlettype" : [ "", "" ],
					"patching_rect" : [ 575.0, 779.0, 55.0, 22.0 ],
					"text" : "route val"
				}

			}
, 			{
				"box" : 				{
					"id" : "obj-27",
					"maxclass" : "toggle",
					"numinlets" : 1,
					"numoutlets" : 1,
					"outlettype" : [ "int" ],
					"parameter_enable" : 0,
					"patching_rect" : [ 401.5, 371.0, 24.0, 24.0 ],
					"presentation" : 1,
					"presentation_rect" : [ 834.5, 491.0, 24.0, 24.0 ]
				}

			}
, 			{
				"box" : 				{
					"id" : "obj-28",
					"maxclass" : "newobj",
					"numinlets" : 5,
					"numoutlets" : 4,
					"outlettype" : [ "int", "", "", "int" ],
					"patching_rect" : [ 389.0, 450.0, 69.0, 22.0 ],
					"text" : "counter 0 7"
				}

			}
, 			{
				"box" : 				{
					"id" : "obj-26",
					"maxclass" : "toggle",
					"numinlets" : 1,
					"numoutlets" : 1,
					"outlettype" : [ "int" ],
					"parameter_enable" : 0,
					"patching_rect" : [ 189.0, 187.0, 24.0, 24.0 ],
					"presentation" : 1,
					"presentation_rect" : [ 464.5, 465.0, 24.0, 24.0 ]
				}

			}
, 			{
				"box" : 				{
					"id" : "obj-22",
					"maxclass" : "toggle",
					"numinlets" : 1,
					"numoutlets" : 1,
					"outlettype" : [ "int" ],
					"parameter_enable" : 0,
					"patching_rect" : [ 201.5, 408.0, 24.0, 24.0 ],
					"presentation" : 1,
					"presentation_rect" : [ 610.5, 393.0, 24.0, 24.0 ]
				}

			}
, 			{
				"box" : 				{
					"id" : "obj-16",
					"maxclass" : "newobj",
					"numinlets" : 5,
					"numoutlets" : 4,
					"outlettype" : [ "int", "", "", "int" ],
					"patching_rect" : [ 189.0, 450.0, 69.0, 22.0 ],
					"text" : "counter 0 7"
				}

			}
, 			{
				"box" : 				{
					"id" : "obj-15",
					"maxclass" : "newobj",
					"numinlets" : 2,
					"numoutlets" : 1,
					"outlettype" : [ "" ],
					"patching_rect" : [ 114.0, 586.0, 40.0, 22.0 ],
					"text" : "pak i i"
				}

			}
, 			{
				"box" : 				{
					"id" : "obj-14",
					"maxclass" : "message",
					"numinlets" : 2,
					"numoutlets" : 1,
					"outlettype" : [ "" ],
					"patching_rect" : [ 114.0, 638.0, 77.0, 22.0 ],
					"text" : "getcell $1 $2"
				}

			}
, 			{
				"box" : 				{
					"id" : "obj-31",
					"maxclass" : "jit.pwindow",
					"numinlets" : 1,
					"numoutlets" : 2,
					"outlettype" : [ "jit_matrix", "" ],
					"patching_rect" : [ 101.0, 740.0, 200.0, 200.0 ],
					"presentation" : 1,
					"presentation_rect" : [ 610.5, 465.0, 200.0, 200.0 ],
					"sync" : 1
				}

			}
, 			{
				"box" : 				{
					"id" : "obj-33",
					"maxclass" : "newobj",
					"numinlets" : 1,
					"numoutlets" : 2,
					"outlettype" : [ "jit_matrix", "" ],
					"patching_rect" : [ 101.0, 671.0, 123.0, 22.0 ],
					"text" : "jit.matrix 4 float32 8 8"
				}

			}
, 			{
				"box" : 				{
					"format" : 6,
					"id" : "obj-35",
					"maxclass" : "flonum",
					"maximum" : 3.0,
					"minimum" : -3.0,
					"numinlets" : 1,
					"numoutlets" : 2,
					"outlettype" : [ "", "bang" ],
					"parameter_enable" : 0,
					"patching_rect" : [ 909.0, 158.0, 50.0, 22.0 ],
					"presentation" : 1,
					"presentation_rect" : [ 236.0, 459.0, 50.0, 22.0 ]
				}

			}
, 			{
				"box" : 				{
					"format" : 6,
					"id" : "obj-37",
					"maxclass" : "flonum",
					"maximum" : 3.0,
					"minimum" : 0.1,
					"numinlets" : 1,
					"numoutlets" : 2,
					"outlettype" : [ "", "bang" ],
					"parameter_enable" : 0,
					"patching_rect" : [ 810.0, 161.0, 50.0, 22.0 ],
					"presentation" : 1,
					"presentation_rect" : [ 184.0, 459.0, 50.0, 22.0 ]
				}

			}
, 			{
				"box" : 				{
					"id" : "obj-48",
					"maxclass" : "newobj",
					"numinlets" : 5,
					"numoutlets" : 1,
					"outlettype" : [ "" ],
					"patching_rect" : [ 607.0, 316.0, 413.0, 22.0 ],
					"text" : "pak f f f f f"
				}

			}
, 			{
				"box" : 				{
					"format" : 6,
					"id" : "obj-50",
					"maxclass" : "flonum",
					"maximum" : 1.0,
					"minimum" : 0.1,
					"numinlets" : 1,
					"numoutlets" : 2,
					"outlettype" : [ "", "bang" ],
					"parameter_enable" : 0,
					"patching_rect" : [ 607.0, 158.0, 50.0, 22.0 ],
					"presentation" : 1,
					"presentation_rect" : [ 81.0, 459.0, 50.0, 22.0 ]
				}

			}
, 			{
				"box" : 				{
					"id" : "obj-52",
					"maxclass" : "message",
					"numinlets" : 2,
					"numoutlets" : 1,
					"outlettype" : [ "" ],
					"patching_rect" : [ 607.0, 356.0, 202.0, 22.0 ],
					"text" : "erase, recursiveTree $1 $2 $3 $4 $5"
				}

			}
, 			{
				"box" : 				{
					"id" : "obj-57",
					"maxclass" : "newobj",
					"numinlets" : 1,
					"numoutlets" : 1,
					"outlettype" : [ "" ],
					"patching_rect" : [ 607.0, 383.0, 53.0, 22.0 ],
					"saved_object_attributes" : 					{
						"filename" : "tree.js",
						"parameter_enable" : 0
					}
,
					"text" : "js tree.js"
				}

			}
, 			{
				"box" : 				{
					"id" : "obj-59",
					"maxclass" : "toggle",
					"numinlets" : 1,
					"numoutlets" : 1,
					"outlettype" : [ "int" ],
					"parameter_enable" : 0,
					"patching_rect" : [ 101.0, 31.0, 24.0, 24.0 ],
					"presentation" : 1,
					"presentation_rect" : [ 81.0, 388.0, 24.0, 24.0 ]
				}

			}
, 			{
				"box" : 				{
					"id" : "obj-63",
					"maxclass" : "newobj",
					"numinlets" : 1,
					"numoutlets" : 3,
					"outlettype" : [ "jit_matrix", "bang", "" ],
					"patching_rect" : [ 101.0, 126.0, 435.0, 22.0 ],
					"text" : "jit.world geom @floating 1 @erase_color 0.3. 0.5 0.2 @output_matrix 1 @fsaa 1"
				}

			}
, 			{
				"box" : 				{
					"comment" : "",
					"id" : "obj-5",
					"index" : 0,
					"maxclass" : "inlet",
					"numinlets" : 0,
					"numoutlets" : 1,
					"outlettype" : [ "" ],
					"patching_rect" : [ 1170.0, 0.0, 30.0, 30.0 ]
				}

			}
, 			{
				"box" : 				{
					"angle" : 270.0,
					"background" : 1,
					"bgcolor" : [ 0.0, 0.0, 0.0, 1.0 ],
					"border" : 1,
					"bordercolor" : [ 0.0, 0.0, 0.0, 1.0 ],
					"id" : "obj-3",
					"maxclass" : "panel",
					"mode" : 0,
					"numinlets" : 1,
					"numoutlets" : 0,
					"patching_rect" : [ 0.0, 0.0, 1200.0, 800.0 ],
					"presentation" : 1,
					"presentation_rect" : [ 0.0, 0.0, 1200.0, 800.0 ],
					"proportion" : 0.5,
					"rounded" : 0
				}

			}
 ],
		"lines" : [ 			{
				"patchline" : 				{
					"destination" : [ "obj-139", 0 ],
					"source" : [ "obj-1", 0 ]
				}

			}
, 			{
				"patchline" : 				{
					"destination" : [ "obj-15", 0 ],
					"source" : [ "obj-10", 0 ]
				}

			}
, 			{
				"patchline" : 				{
					"destination" : [ "obj-10", 0 ],
					"source" : [ "obj-101", 0 ]
				}

			}
, 			{
				"patchline" : 				{
					"destination" : [ "obj-62", 1 ],
					"midpoints" : [ 674.5, 1230.5, 597.0, 1230.5 ],
					"source" : [ "obj-105", 1 ]
				}

			}
, 			{
				"patchline" : 				{
					"destination" : [ "obj-62", 0 ],
					"midpoints" : [ 584.5, 1229.5, 583.5, 1229.5 ],
					"source" : [ "obj-105", 0 ]
				}

			}
, 			{
				"patchline" : 				{
					"destination" : [ "obj-184", 0 ],
					"source" : [ "obj-12", 0 ]
				}

			}
, 			{
				"patchline" : 				{
					"destination" : [ "obj-193", 0 ],
					"order" : 0,
					"source" : [ "obj-13", 0 ]
				}

			}
, 			{
				"patchline" : 				{
					"destination" : [ "obj-194", 0 ],
					"order" : 1,
					"source" : [ "obj-13", 0 ]
				}

			}
, 			{
				"patchline" : 				{
					"destination" : [ "obj-198", 0 ],
					"order" : 2,
					"source" : [ "obj-13", 0 ]
				}

			}
, 			{
				"patchline" : 				{
					"destination" : [ "obj-1", 0 ],
					"source" : [ "obj-138", 0 ]
				}

			}
, 			{
				"patchline" : 				{
					"destination" : [ "obj-64", 1 ],
					"source" : [ "obj-139", 1 ]
				}

			}
, 			{
				"patchline" : 				{
					"destination" : [ "obj-64", 0 ],
					"source" : [ "obj-139", 0 ]
				}

			}
, 			{
				"patchline" : 				{
					"destination" : [ "obj-33", 0 ],
					"source" : [ "obj-14", 0 ]
				}

			}
, 			{
				"patchline" : 				{
					"destination" : [ "obj-14", 0 ],
					"order" : 1,
					"source" : [ "obj-15", 0 ]
				}

			}
, 			{
				"patchline" : 				{
					"destination" : [ "obj-89", 0 ],
					"order" : 0,
					"source" : [ "obj-15", 0 ]
				}

			}
, 			{
				"patchline" : 				{
					"destination" : [ "obj-154", 0 ],
					"source" : [ "obj-153", 0 ]
				}

			}
, 			{
				"patchline" : 				{
					"destination" : [ "obj-167", 0 ],
					"source" : [ "obj-154", 0 ]
				}

			}
, 			{
				"patchline" : 				{
					"destination" : [ "obj-156", 0 ],
					"source" : [ "obj-155", 0 ]
				}

			}
, 			{
				"patchline" : 				{
					"destination" : [ "obj-160", 0 ],
					"source" : [ "obj-156", 0 ]
				}

			}
, 			{
				"patchline" : 				{
					"destination" : [ "obj-159", 0 ],
					"source" : [ "obj-157", 1 ]
				}

			}
, 			{
				"patchline" : 				{
					"destination" : [ "obj-160", 0 ],
					"source" : [ "obj-159", 0 ]
				}

			}
, 			{
				"patchline" : 				{
					"destination" : [ "obj-10", 1 ],
					"source" : [ "obj-16", 0 ]
				}

			}
, 			{
				"patchline" : 				{
					"destination" : [ "obj-157", 0 ],
					"source" : [ "obj-161", 0 ]
				}

			}
, 			{
				"patchline" : 				{
					"destination" : [ "obj-163", 0 ],
					"source" : [ "obj-162", 0 ]
				}

			}
, 			{
				"patchline" : 				{
					"destination" : [ "obj-161", 0 ],
					"order" : 0,
					"source" : [ "obj-163", 0 ]
				}

			}
, 			{
				"patchline" : 				{
					"destination" : [ "obj-166", 0 ],
					"order" : 1,
					"source" : [ "obj-163", 0 ]
				}

			}
, 			{
				"patchline" : 				{
					"destination" : [ "obj-167", 0 ],
					"source" : [ "obj-165", 0 ]
				}

			}
, 			{
				"patchline" : 				{
					"destination" : [ "obj-167", 0 ],
					"source" : [ "obj-166", 0 ]
				}

			}
, 			{
				"patchline" : 				{
					"destination" : [ "obj-29", 0 ],
					"source" : [ "obj-167", 1 ]
				}

			}
, 			{
				"patchline" : 				{
					"destination" : [ "obj-29", 0 ],
					"source" : [ "obj-167", 0 ]
				}

			}
, 			{
				"patchline" : 				{
					"destination" : [ "obj-170", 0 ],
					"source" : [ "obj-168", 0 ]
				}

			}
, 			{
				"patchline" : 				{
					"destination" : [ "obj-21", 0 ],
					"source" : [ "obj-169", 1 ]
				}

			}
, 			{
				"patchline" : 				{
					"destination" : [ "obj-172", 0 ],
					"source" : [ "obj-171", 0 ]
				}

			}
, 			{
				"patchline" : 				{
					"destination" : [ "obj-25", 0 ],
					"order" : 0,
					"source" : [ "obj-172", 0 ]
				}

			}
, 			{
				"patchline" : 				{
					"destination" : [ "obj-42", 0 ],
					"order" : 1,
					"source" : [ "obj-172", 0 ]
				}

			}
, 			{
				"patchline" : 				{
					"destination" : [ "obj-167", 1 ],
					"source" : [ "obj-174", 1 ]
				}

			}
, 			{
				"patchline" : 				{
					"destination" : [ "obj-167", 0 ],
					"source" : [ "obj-174", 0 ]
				}

			}
, 			{
				"patchline" : 				{
					"destination" : [ "obj-186", 0 ],
					"source" : [ "obj-175", 0 ]
				}

			}
, 			{
				"patchline" : 				{
					"destination" : [ "obj-12", 0 ],
					"source" : [ "obj-176", 0 ]
				}

			}
, 			{
				"patchline" : 				{
					"destination" : [ "obj-184", 0 ],
					"source" : [ "obj-177", 0 ]
				}

			}
, 			{
				"patchline" : 				{
					"destination" : [ "obj-181", 0 ],
					"source" : [ "obj-178", 0 ]
				}

			}
, 			{
				"patchline" : 				{
					"destination" : [ "obj-180", 0 ],
					"midpoints" : [ 1215.5, 1456.0, 1215.5, 1456.0 ],
					"source" : [ "obj-181", 0 ]
				}

			}
, 			{
				"patchline" : 				{
					"destination" : [ "obj-193", 0 ],
					"order" : 0,
					"source" : [ "obj-182", 0 ]
				}

			}
, 			{
				"patchline" : 				{
					"destination" : [ "obj-194", 0 ],
					"order" : 1,
					"source" : [ "obj-182", 0 ]
				}

			}
, 			{
				"patchline" : 				{
					"destination" : [ "obj-198", 0 ],
					"order" : 2,
					"source" : [ "obj-182", 0 ]
				}

			}
, 			{
				"patchline" : 				{
					"destination" : [ "obj-182", 0 ],
					"source" : [ "obj-183", 0 ]
				}

			}
, 			{
				"patchline" : 				{
					"destination" : [ "obj-183", 0 ],
					"source" : [ "obj-184", 0 ]
				}

			}
, 			{
				"patchline" : 				{
					"destination" : [ "obj-186", 0 ],
					"source" : [ "obj-185", 0 ]
				}

			}
, 			{
				"patchline" : 				{
					"destination" : [ "obj-53", 0 ],
					"order" : 1,
					"source" : [ "obj-187", 0 ]
				}

			}
, 			{
				"patchline" : 				{
					"destination" : [ "obj-6", 0 ],
					"order" : 0,
					"source" : [ "obj-187", 0 ]
				}

			}
, 			{
				"patchline" : 				{
					"destination" : [ "obj-190", 0 ],
					"source" : [ "obj-189", 0 ]
				}

			}
, 			{
				"patchline" : 				{
					"destination" : [ "obj-63", 0 ],
					"source" : [ "obj-19", 0 ]
				}

			}
, 			{
				"patchline" : 				{
					"destination" : [ "obj-193", 0 ],
					"order" : 0,
					"source" : [ "obj-190", 0 ]
				}

			}
, 			{
				"patchline" : 				{
					"destination" : [ "obj-194", 0 ],
					"order" : 1,
					"source" : [ "obj-190", 0 ]
				}

			}
, 			{
				"patchline" : 				{
					"destination" : [ "obj-198", 0 ],
					"order" : 2,
					"source" : [ "obj-190", 0 ]
				}

			}
, 			{
				"patchline" : 				{
					"destination" : [ "obj-174", 0 ],
					"source" : [ "obj-192", 0 ]
				}

			}
, 			{
				"patchline" : 				{
					"destination" : [ "obj-163", 1 ],
					"source" : [ "obj-193", 1 ]
				}

			}
, 			{
				"patchline" : 				{
					"destination" : [ "obj-172", 1 ],
					"source" : [ "obj-194", 1 ]
				}

			}
, 			{
				"patchline" : 				{
					"destination" : [ "obj-13", 0 ],
					"order" : 0,
					"source" : [ "obj-196", 0 ]
				}

			}
, 			{
				"patchline" : 				{
					"destination" : [ "obj-189", 0 ],
					"order" : 1,
					"source" : [ "obj-196", 0 ]
				}

			}
, 			{
				"patchline" : 				{
					"destination" : [ "obj-200", 0 ],
					"order" : 2,
					"source" : [ "obj-196", 0 ]
				}

			}
, 			{
				"patchline" : 				{
					"destination" : [ "obj-51", 0 ],
					"source" : [ "obj-197", 0 ]
				}

			}
, 			{
				"patchline" : 				{
					"destination" : [ "obj-187", 1 ],
					"source" : [ "obj-198", 1 ]
				}

			}
, 			{
				"patchline" : 				{
					"destination" : [ "obj-193", 0 ],
					"order" : 0,
					"source" : [ "obj-199", 0 ]
				}

			}
, 			{
				"patchline" : 				{
					"destination" : [ "obj-194", 0 ],
					"order" : 1,
					"source" : [ "obj-199", 0 ]
				}

			}
, 			{
				"patchline" : 				{
					"destination" : [ "obj-198", 0 ],
					"order" : 2,
					"source" : [ "obj-199", 0 ]
				}

			}
, 			{
				"patchline" : 				{
					"destination" : [ "obj-15", 1 ],
					"source" : [ "obj-2", 0 ]
				}

			}
, 			{
				"patchline" : 				{
					"destination" : [ "obj-202", 0 ],
					"source" : [ "obj-200", 0 ]
				}

			}
, 			{
				"patchline" : 				{
					"destination" : [ "obj-199", 0 ],
					"source" : [ "obj-201", 2 ]
				}

			}
, 			{
				"patchline" : 				{
					"destination" : [ "obj-201", 0 ],
					"source" : [ "obj-202", 0 ]
				}

			}
, 			{
				"patchline" : 				{
					"destination" : [ "obj-138", 0 ],
					"source" : [ "obj-205", 0 ]
				}

			}
, 			{
				"patchline" : 				{
					"destination" : [ "obj-16", 0 ],
					"source" : [ "obj-208", 2 ]
				}

			}
, 			{
				"patchline" : 				{
					"destination" : [ "obj-208", 0 ],
					"source" : [ "obj-209", 0 ]
				}

			}
, 			{
				"patchline" : 				{
					"destination" : [ "obj-170", 0 ],
					"source" : [ "obj-21", 0 ]
				}

			}
, 			{
				"patchline" : 				{
					"destination" : [ "obj-16", 4 ],
					"source" : [ "obj-215", 1 ]
				}

			}
, 			{
				"patchline" : 				{
					"destination" : [ "obj-221", 0 ],
					"source" : [ "obj-215", 0 ]
				}

			}
, 			{
				"patchline" : 				{
					"destination" : [ "obj-16", 1 ],
					"source" : [ "obj-22", 0 ]
				}

			}
, 			{
				"patchline" : 				{
					"destination" : [ "obj-16", 0 ],
					"source" : [ "obj-221", 0 ]
				}

			}
, 			{
				"patchline" : 				{
					"destination" : [ "obj-215", 0 ],
					"source" : [ "obj-226", 0 ]
				}

			}
, 			{
				"patchline" : 				{
					"destination" : [ "obj-231", 1 ],
					"order" : 0,
					"source" : [ "obj-228", 0 ]
				}

			}
, 			{
				"patchline" : 				{
					"destination" : [ "obj-28", 4 ],
					"order" : 1,
					"source" : [ "obj-228", 0 ]
				}

			}
, 			{
				"patchline" : 				{
					"destination" : [ "obj-230", 0 ],
					"order" : 1,
					"source" : [ "obj-229", 0 ]
				}

			}
, 			{
				"patchline" : 				{
					"destination" : [ "obj-231", 0 ],
					"order" : 0,
					"source" : [ "obj-229", 0 ]
				}

			}
, 			{
				"patchline" : 				{
					"destination" : [ "obj-28", 0 ],
					"source" : [ "obj-230", 0 ]
				}

			}
, 			{
				"patchline" : 				{
					"destination" : [ "obj-242", 0 ],
					"source" : [ "obj-231", 0 ]
				}

			}
, 			{
				"patchline" : 				{
					"destination" : [ "obj-243", 0 ],
					"source" : [ "obj-231", 1 ]
				}

			}
, 			{
				"patchline" : 				{
					"destination" : [ "obj-101", 0 ],
					"order" : 1,
					"source" : [ "obj-232", 0 ]
				}

			}
, 			{
				"patchline" : 				{
					"destination" : [ "obj-92", 0 ],
					"order" : 0,
					"source" : [ "obj-232", 0 ]
				}

			}
, 			{
				"patchline" : 				{
					"destination" : [ "obj-28", 0 ],
					"source" : [ "obj-233", 2 ]
				}

			}
, 			{
				"patchline" : 				{
					"destination" : [ "obj-19", 0 ],
					"source" : [ "obj-24", 0 ]
				}

			}
, 			{
				"patchline" : 				{
					"destination" : [ "obj-28", 4 ],
					"source" : [ "obj-242", 0 ]
				}

			}
, 			{
				"patchline" : 				{
					"destination" : [ "obj-230", 0 ],
					"source" : [ "obj-243", 0 ]
				}

			}
, 			{
				"patchline" : 				{
					"destination" : [ "obj-169", 0 ],
					"source" : [ "obj-25", 0 ]
				}

			}
, 			{
				"patchline" : 				{
					"destination" : [ "obj-253", 0 ],
					"source" : [ "obj-252", 0 ]
				}

			}
, 			{
				"patchline" : 				{
					"destination" : [ "obj-281", 0 ],
					"source" : [ "obj-253", 0 ]
				}

			}
, 			{
				"patchline" : 				{
					"destination" : [ "obj-208", 0 ],
					"source" : [ "obj-258", 0 ]
				}

			}
, 			{
				"patchline" : 				{
					"destination" : [ "obj-208", 0 ],
					"order" : 1,
					"source" : [ "obj-26", 0 ]
				}

			}
, 			{
				"patchline" : 				{
					"destination" : [ "obj-233", 0 ],
					"order" : 0,
					"source" : [ "obj-26", 0 ]
				}

			}
, 			{
				"patchline" : 				{
					"destination" : [ "obj-258", 0 ],
					"order" : 1,
					"source" : [ "obj-260", 0 ]
				}

			}
, 			{
				"patchline" : 				{
					"destination" : [ "obj-289", 0 ],
					"order" : 0,
					"source" : [ "obj-260", 0 ]
				}

			}
, 			{
				"patchline" : 				{
					"destination" : [ "obj-264", 0 ],
					"order" : 1,
					"source" : [ "obj-263", 0 ]
				}

			}
, 			{
				"patchline" : 				{
					"destination" : [ "obj-288", 0 ],
					"order" : 0,
					"source" : [ "obj-263", 0 ]
				}

			}
, 			{
				"patchline" : 				{
					"destination" : [ "obj-233", 0 ],
					"source" : [ "obj-264", 0 ]
				}

			}
, 			{
				"patchline" : 				{
					"destination" : [ "obj-266", 0 ],
					"order" : 1,
					"source" : [ "obj-265", 0 ]
				}

			}
, 			{
				"patchline" : 				{
					"destination" : [ "obj-293", 0 ],
					"order" : 0,
					"source" : [ "obj-265", 0 ]
				}

			}
, 			{
				"patchline" : 				{
					"destination" : [ "obj-208", 0 ],
					"source" : [ "obj-266", 0 ]
				}

			}
, 			{
				"patchline" : 				{
					"destination" : [ "obj-265", 0 ],
					"source" : [ "obj-267", 0 ]
				}

			}
, 			{
				"patchline" : 				{
					"destination" : [ "obj-28", 1 ],
					"source" : [ "obj-27", 0 ]
				}

			}
, 			{
				"patchline" : 				{
					"destination" : [ "obj-105", 2 ],
					"source" : [ "obj-275", 0 ]
				}

			}
, 			{
				"patchline" : 				{
					"destination" : [ "obj-294", 0 ],
					"source" : [ "obj-279", 0 ]
				}

			}
, 			{
				"patchline" : 				{
					"destination" : [ "obj-2", 1 ],
					"source" : [ "obj-28", 0 ]
				}

			}
, 			{
				"patchline" : 				{
					"destination" : [ "obj-279", 0 ],
					"source" : [ "obj-280", 0 ]
				}

			}
, 			{
				"patchline" : 				{
					"destination" : [ "obj-275", 0 ],
					"source" : [ "obj-281", 0 ]
				}

			}
, 			{
				"patchline" : 				{
					"destination" : [ "obj-295", 0 ],
					"source" : [ "obj-282", 0 ]
				}

			}
, 			{
				"patchline" : 				{
					"destination" : [ "obj-282", 1 ],
					"source" : [ "obj-288", 1 ]
				}

			}
, 			{
				"patchline" : 				{
					"destination" : [ "obj-289", 0 ],
					"source" : [ "obj-288", 0 ]
				}

			}
, 			{
				"patchline" : 				{
					"destination" : [ "obj-282", 0 ],
					"source" : [ "obj-289", 0 ]
				}

			}
, 			{
				"patchline" : 				{
					"destination" : [ "obj-260", 0 ],
					"order" : 1,
					"source" : [ "obj-292", 0 ]
				}

			}
, 			{
				"patchline" : 				{
					"destination" : [ "obj-263", 0 ],
					"order" : 0,
					"source" : [ "obj-292", 0 ]
				}

			}
, 			{
				"patchline" : 				{
					"destination" : [ "obj-252", 0 ],
					"source" : [ "obj-293", 0 ]
				}

			}
, 			{
				"patchline" : 				{
					"destination" : [ "obj-275", 1 ],
					"source" : [ "obj-294", 1 ]
				}

			}
, 			{
				"patchline" : 				{
					"destination" : [ "obj-293", 0 ],
					"source" : [ "obj-294", 0 ]
				}

			}
, 			{
				"patchline" : 				{
					"destination" : [ "obj-281", 1 ],
					"source" : [ "obj-295", 1 ]
				}

			}
, 			{
				"patchline" : 				{
					"destination" : [ "obj-293", 0 ],
					"source" : [ "obj-295", 0 ]
				}

			}
, 			{
				"patchline" : 				{
					"destination" : [ "obj-63", 0 ],
					"source" : [ "obj-32", 0 ]
				}

			}
, 			{
				"patchline" : 				{
					"destination" : [ "obj-31", 0 ],
					"source" : [ "obj-33", 0 ]
				}

			}
, 			{
				"patchline" : 				{
					"destination" : [ "obj-40", 0 ],
					"source" : [ "obj-33", 1 ]
				}

			}
, 			{
				"patchline" : 				{
					"destination" : [ "obj-41", 0 ],
					"source" : [ "obj-34", 0 ]
				}

			}
, 			{
				"patchline" : 				{
					"destination" : [ "obj-48", 3 ],
					"source" : [ "obj-35", 0 ]
				}

			}
, 			{
				"patchline" : 				{
					"destination" : [ "obj-192", 0 ],
					"source" : [ "obj-36", 0 ]
				}

			}
, 			{
				"patchline" : 				{
					"destination" : [ "obj-48", 2 ],
					"source" : [ "obj-37", 0 ]
				}

			}
, 			{
				"patchline" : 				{
					"destination" : [ "obj-174", 0 ],
					"source" : [ "obj-38", 0 ]
				}

			}
, 			{
				"patchline" : 				{
					"destination" : [ "obj-16", 4 ],
					"order" : 1,
					"source" : [ "obj-39", 0 ]
				}

			}
, 			{
				"patchline" : 				{
					"destination" : [ "obj-215", 1 ],
					"order" : 0,
					"source" : [ "obj-39", 0 ]
				}

			}
, 			{
				"patchline" : 				{
					"destination" : [ "obj-187", 0 ],
					"source" : [ "obj-4", 0 ]
				}

			}
, 			{
				"patchline" : 				{
					"destination" : [ "obj-34", 0 ],
					"source" : [ "obj-40", 1 ]
				}

			}
, 			{
				"patchline" : 				{
					"destination" : [ "obj-205", 2 ],
					"source" : [ "obj-41", 3 ]
				}

			}
, 			{
				"patchline" : 				{
					"destination" : [ "obj-205", 1 ],
					"source" : [ "obj-41", 1 ]
				}

			}
, 			{
				"patchline" : 				{
					"destination" : [ "obj-205", 0 ],
					"source" : [ "obj-41", 0 ]
				}

			}
, 			{
				"patchline" : 				{
					"destination" : [ "obj-174", 0 ],
					"source" : [ "obj-42", 0 ]
				}

			}
, 			{
				"patchline" : 				{
					"destination" : [ "obj-32", 0 ],
					"source" : [ "obj-43", 0 ]
				}

			}
, 			{
				"patchline" : 				{
					"destination" : [ "obj-24", 0 ],
					"source" : [ "obj-45", 0 ]
				}

			}
, 			{
				"patchline" : 				{
					"destination" : [ "obj-52", 0 ],
					"source" : [ "obj-48", 0 ]
				}

			}
, 			{
				"patchline" : 				{
					"destination" : [ "obj-175", 0 ],
					"source" : [ "obj-49", 0 ]
				}

			}
, 			{
				"patchline" : 				{
					"destination" : [ "obj-48", 0 ],
					"source" : [ "obj-50", 0 ]
				}

			}
, 			{
				"patchline" : 				{
					"destination" : [ "obj-174", 1 ],
					"source" : [ "obj-51", 1 ]
				}

			}
, 			{
				"patchline" : 				{
					"destination" : [ "obj-174", 0 ],
					"source" : [ "obj-51", 0 ]
				}

			}
, 			{
				"patchline" : 				{
					"destination" : [ "obj-57", 0 ],
					"source" : [ "obj-52", 0 ]
				}

			}
, 			{
				"patchline" : 				{
					"destination" : [ "obj-51", 0 ],
					"source" : [ "obj-53", 0 ]
				}

			}
, 			{
				"patchline" : 				{
					"destination" : [ "obj-37", 0 ],
					"source" : [ "obj-54", 0 ]
				}

			}
, 			{
				"patchline" : 				{
					"destination" : [ "obj-35", 0 ],
					"source" : [ "obj-55", 0 ]
				}

			}
, 			{
				"patchline" : 				{
					"destination" : [ "obj-50", 0 ],
					"source" : [ "obj-56", 0 ]
				}

			}
, 			{
				"patchline" : 				{
					"destination" : [ "obj-177", 0 ],
					"source" : [ "obj-58", 0 ]
				}

			}
, 			{
				"patchline" : 				{
					"destination" : [ "obj-63", 0 ],
					"source" : [ "obj-59", 0 ]
				}

			}
, 			{
				"patchline" : 				{
					"destination" : [ "obj-9", 0 ],
					"source" : [ "obj-6", 0 ]
				}

			}
, 			{
				"patchline" : 				{
					"destination" : [ "obj-24", 1 ],
					"source" : [ "obj-60", 0 ]
				}

			}
, 			{
				"patchline" : 				{
					"destination" : [ "obj-51", 0 ],
					"source" : [ "obj-61", 1 ]
				}

			}
, 			{
				"patchline" : 				{
					"destination" : [ "obj-61", 0 ],
					"midpoints" : [ 583.5, 1259.5, 585.5, 1259.5 ],
					"source" : [ "obj-62", 0 ]
				}

			}
, 			{
				"patchline" : 				{
					"destination" : [ "obj-33", 0 ],
					"source" : [ "obj-63", 0 ]
				}

			}
, 			{
				"patchline" : 				{
					"destination" : [ "obj-76", 0 ],
					"source" : [ "obj-63", 1 ]
				}

			}
, 			{
				"patchline" : 				{
					"destination" : [ "obj-105", 1 ],
					"source" : [ "obj-64", 1 ]
				}

			}
, 			{
				"patchline" : 				{
					"destination" : [ "obj-105", 0 ],
					"source" : [ "obj-64", 0 ]
				}

			}
, 			{
				"patchline" : 				{
					"destination" : [ "obj-75", 1 ],
					"source" : [ "obj-67", 0 ]
				}

			}
, 			{
				"patchline" : 				{
					"destination" : [ "obj-67", 0 ],
					"source" : [ "obj-68", 0 ]
				}

			}
, 			{
				"patchline" : 				{
					"destination" : [ "obj-168", 0 ],
					"source" : [ "obj-7", 0 ]
				}

			}
, 			{
				"patchline" : 				{
					"destination" : [ "obj-73", 0 ],
					"source" : [ "obj-72", 0 ]
				}

			}
, 			{
				"patchline" : 				{
					"destination" : [ "obj-48", 4 ],
					"source" : [ "obj-73", 0 ]
				}

			}
, 			{
				"patchline" : 				{
					"destination" : [ "obj-76", 0 ],
					"source" : [ "obj-74", 0 ]
				}

			}
, 			{
				"patchline" : 				{
					"destination" : [ "obj-48", 1 ],
					"source" : [ "obj-75", 0 ]
				}

			}
, 			{
				"patchline" : 				{
					"destination" : [ "obj-79", 0 ],
					"source" : [ "obj-76", 0 ]
				}

			}
, 			{
				"patchline" : 				{
					"destination" : [ "obj-24", 2 ],
					"source" : [ "obj-77", 0 ]
				}

			}
, 			{
				"patchline" : 				{
					"destination" : [ "obj-45", 0 ],
					"source" : [ "obj-78", 0 ]
				}

			}
, 			{
				"patchline" : 				{
					"destination" : [ "obj-75", 0 ],
					"source" : [ "obj-79", 0 ]
				}

			}
, 			{
				"patchline" : 				{
					"destination" : [ "obj-60", 0 ],
					"source" : [ "obj-80", 0 ]
				}

			}
, 			{
				"patchline" : 				{
					"destination" : [ "obj-79", 1 ],
					"source" : [ "obj-81", 0 ]
				}

			}
, 			{
				"patchline" : 				{
					"destination" : [ "obj-77", 0 ],
					"source" : [ "obj-82", 0 ]
				}

			}
, 			{
				"patchline" : 				{
					"destination" : [ "obj-74", 0 ],
					"source" : [ "obj-83", 0 ]
				}

			}
, 			{
				"patchline" : 				{
					"destination" : [ "obj-87", 0 ],
					"source" : [ "obj-89", 0 ]
				}

			}
, 			{
				"patchline" : 				{
					"destination" : [ "obj-185", 0 ],
					"source" : [ "obj-9", 1 ]
				}

			}
, 			{
				"patchline" : 				{
					"destination" : [ "obj-2", 0 ],
					"source" : [ "obj-92", 0 ]
				}

			}
 ],
		"parameters" : 		{
			"obj-167" : [ "vst~[2]", "vst~[2]", 0 ],
			"obj-174" : [ "vst~[1]", "vst~[1]", 0 ],
			"obj-51" : [ "vst~", "vst~", 0 ],
			"parameterbanks" : 			{
				"0" : 				{
					"index" : 0,
					"name" : "",
					"parameters" : [ "-", "-", "-", "-", "-", "-", "-", "-" ]
				}

			}
,
			"inherited_shortname" : 1
		}
,
		"dependency_cache" : [ 			{
				"name" : "link.beat.mxo",
				"type" : "iLaX"
			}
, 			{
				"name" : "tree.js",
				"bootpath" : "~/GitHub/MULE-S24/Files",
				"patcherrelativepath" : ".",
				"type" : "TEXT",
				"implicit" : 1
			}
 ],
		"autosave" : 0,
		"styles" : [ 			{
				"name" : "MP-M4L",
				"default" : 				{
					"accentcolor" : [ 0.411764705882353, 0.411764705882353, 0.411764705882353, 1.0 ],
					"bgcolor" : [ 0.098039215686275, 0.098039215686275, 0.098039215686275, 1.0 ],
					"bgfillcolor" : 					{
						"color" : [ 0.266666666666667, 0.266666666666667, 0.266666666666667, 1.0 ],
						"color1" : [ 0.376470588235294, 0.384313725490196, 0.4, 1.0 ],
						"color2" : [ 0.290196078431373, 0.309803921568627, 0.301960784313725, 1.0 ],
						"dynamiccolor" : [ 0.266666666666667, 0.266666666666667, 0.266666666666667, 1.0, "live_contrast_frame", 1, 0.266666666666667, 0.266666666666667, 0.266666666666667, 1.0, "Control Border" ],
						"type" : "color"
					}
,
					"color" : [ 0.333333333333333, 0.870588235294118, 0.964705882352941, 1.0 ],
					"editing_bgcolor" : [ 0.56078431372549, 0.56078431372549, 0.56078431372549, 1.0 ],
					"elementcolor" : [ 0.313725490196078, 0.313725490196078, 0.313725490196078, 1.0 ],
					"locked_bgcolor" : [ 0.56078431372549, 0.56078431372549, 0.56078431372549, 1.0 ],
					"patchlinecolor" : [ 0.313725490196078, 0.313725490196078, 0.313725490196078, 1.0 ],
					"selectioncolor" : [ 1.0, 0.694117647058824, 0.0, 1.0 ],
					"stripecolor" : [ 0.313725490196078, 0.313725490196078, 0.313725490196078, 1.0 ],
					"textcolor" : [ 0.0, 0.0, 0.0, 1.0 ]
				}
,
				"parentstyle" : "",
				"multi" : 0
			}
, 			{
				"name" : "rnbodefault",
				"default" : 				{
					"accentcolor" : [ 0.343034118413925, 0.506230533123016, 0.86220508813858, 1.0 ],
					"bgcolor" : [ 0.031372549019608, 0.125490196078431, 0.211764705882353, 1.0 ],
					"bgfillcolor" : 					{
						"angle" : 270.0,
						"autogradient" : 0.0,
						"color" : [ 0.031372549019608, 0.125490196078431, 0.211764705882353, 1.0 ],
						"color1" : [ 0.031372549019608, 0.125490196078431, 0.211764705882353, 1.0 ],
						"color2" : [ 0.263682, 0.004541, 0.038797, 1.0 ],
						"proportion" : 0.39,
						"type" : "color"
					}
,
					"color" : [ 0.929412, 0.929412, 0.352941, 1.0 ],
					"elementcolor" : [ 0.357540726661682, 0.515565991401672, 0.861786782741547, 1.0 ],
					"fontname" : [ "Lato" ],
					"fontsize" : [ 12.0 ],
					"stripecolor" : [ 0.258338063955307, 0.352425158023834, 0.511919498443604, 1.0 ],
					"textcolor_inverse" : [ 0.968627, 0.968627, 0.968627, 1 ]
				}
,
				"parentstyle" : "",
				"multi" : 0
			}
, 			{
				"name" : "rnbohighcontrast",
				"default" : 				{
					"accentcolor" : [ 0.666666666666667, 0.666666666666667, 0.666666666666667, 1.0 ],
					"bgcolor" : [ 0.0, 0.0, 0.0, 1.0 ],
					"bgfillcolor" : 					{
						"angle" : 270.0,
						"autogradient" : 0.0,
						"color" : [ 0.0, 0.0, 0.0, 1.0 ],
						"color1" : [ 0.090196078431373, 0.090196078431373, 0.090196078431373, 1.0 ],
						"color2" : [ 0.156862745098039, 0.168627450980392, 0.164705882352941, 1.0 ],
						"proportion" : 0.5,
						"type" : "color"
					}
,
					"clearcolor" : [ 1.0, 1.0, 1.0, 0.0 ],
					"color" : [ 1.0, 0.874509803921569, 0.141176470588235, 1.0 ],
					"editing_bgcolor" : [ 0.258823529411765, 0.258823529411765, 0.258823529411765, 1.0 ],
					"elementcolor" : [ 0.223386004567146, 0.254748553037643, 0.998085916042328, 1.0 ],
					"fontsize" : [ 13.0 ],
					"locked_bgcolor" : [ 0.258823529411765, 0.258823529411765, 0.258823529411765, 1.0 ],
					"selectioncolor" : [ 0.301960784313725, 0.694117647058824, 0.949019607843137, 1.0 ],
					"stripecolor" : [ 0.258823529411765, 0.258823529411765, 0.258823529411765, 1.0 ],
					"textcolor" : [ 1.0, 1.0, 1.0, 1.0 ],
					"textcolor_inverse" : [ 1.0, 1.0, 1.0, 1.0 ]
				}
,
				"parentstyle" : "",
				"multi" : 0
			}
 ],
		"bgcolor" : [ 0.150000020861626, 0.150000020861626, 0.150000020861626, 1.0 ],
		"editing_bgcolor" : [ 0.200000017881393, 0.200000017881393, 0.200000017881393, 1.0 ]
	}

}
